<svg width="100" height="100" viewBox="0 0 100 100" xmlns="http://www.w3.org/2000/svg">
  <defs>
    <radialGradient id="grad7" cx="50%" cy="50%" r="70%">
      <stop offset="0%" style="stop-color:#FF9B5A;stop-opacity:1" />
      <stop offset="60%" style="stop-color:#FF792D;stop-opacity:1" />
      <stop offset="100%" style="stop-color:#8D4E2E;stop-opacity:1" />
    </radialGradient>
    <filter id="shadow7" x="-20%" y="-20%" width="140%" height="140%">
      <feDropShadow dx="2" dy="2" stdDeviation="2" flood-color="#000000" flood-opacity="0.3"/>
    </filter>
    <linearGradient id="skinGrad" x1="0%" y1="0%" x2="100%" y2="100%">
      <stop offset="0%" style="stop-color:#FFDBB3;stop-opacity:1" />
      <stop offset="100%" style="stop-color:#E6B280;stop-opacity:1" />
    </linearGradient>
  </defs>

  <!-- Left hand shadow -->
  <path d="M20,50 Q20,30 30,30 L40,30 Q50,30 50,40 L50,60 Q50,70 40,70 L30,70 Q20,70 20,60 Z" fill="#000000" fill-opacity="0.2" transform="translate(2,2)"/>
  <!-- Right hand shadow -->
  <path d="M80,50 Q80,30 70,30 L60,30 Q50,30 50,40 L50,60 Q50,70 60,70 L70,70 Q80,70 80,60 Z" fill="#000000" fill-opacity="0.2" transform="translate(2,2)"/>

  <!-- Left hand -->
  <path d="M20,50 Q20,30 30,30 L40,30 Q50,30 50,40 L50,60 Q50,70 40,70 L30,70 Q20,70 20,60 Z" fill="url(#skinGrad)" stroke="#8D4E2E" stroke-width="2" filter="url(#shadow7)"/>
  <!-- Right hand -->
  <path d="M80,50 Q80,30 70,30 L60,30 Q50,30 50,40 L50,60 Q50,70 60,70 L70,70 Q80,70 80,60 Z" fill="url(#skinGrad)" stroke="#8D4E2E" stroke-width="2" filter="url(#shadow7)"/>

  <!-- Left fingers -->
  <rect x="15" y="35" width="5" height="15" fill="url(#skinGrad)" stroke="#8D4E2E" stroke-width="1"/>
  <rect x="15" y="55" width="5" height="15" fill="url(#skinGrad)" stroke="#8D4E2E" stroke-width="1"/>
  <rect x="10" y="40" width="5" height="10" fill="url(#skinGrad)" stroke="#8D4E2E" stroke-width="1"/>
  <rect x="10" y="50" width="5" height="10" fill="url(#skinGrad)" stroke="#8D4E2E" stroke-width="1"/>
  <!-- Right fingers -->
  <rect x="80" y="35" width="5" height="15" fill="url(#skinGrad)" stroke="#8D4E2E" stroke-width="1"/>
  <rect x="80" y="55" width="5" height="15" fill="url(#skinGrad)" stroke="#8D4E2E" stroke-width="1"/>
  <rect x="85" y="40" width="5" height="10" fill="url(#skinGrad)" stroke="#8D4E2E" stroke-width="1"/>
  <rect x="85" y="50" width="5" height="10" fill="url(#skinGrad)" stroke="#8D4E2E" stroke-width="1"/>

  <!-- Thumb details -->
  <circle cx="25" cy="45" r="2" fill="#E6B280"/>
  <circle cx="75" cy="45" r="2" fill="#E6B280"/>
  <circle cx="25" cy="55" r="2" fill="#E6B280"/>
  <circle cx="75" cy="55" r="2" fill="#E6B280"/>

  <!-- Wrist lines -->
  <line x1="20" y1="50" x2="15" y2="50" stroke="#8D4E2E" stroke-width="1"/>
  <line x1="80" y1="50" x2="85" y2="50" stroke="#8D4E2E" stroke-width="1"/>
</svg>
