<svg width="100" height="100" viewBox="0 0 100 100" xmlns="http://www.w3.org/2000/svg">
  <defs>
    <radialGradient id="grad2" cx="50%" cy="50%" r="60%">
      <stop offset="0%" style="stop-color:#FF9B5A;stop-opacity:1" />
      <stop offset="70%" style="stop-color:#FF792D;stop-opacity:1" />
      <stop offset="100%" style="stop-color:#8D4E2E;stop-opacity:1" />
    </radialGradient>
    <filter id="shadow2" x="-20%" y="-20%" width="140%" height="140%">
      <feDropShadow dx="2" dy="2" stdDeviation="2" flood-color="#000000" flood-opacity="0.3"/>
    </filter>
    <linearGradient id="stringGrad" x1="0%" y1="0%" x2="100%" y2="0%">
      <stop offset="0%" style="stop-color:#FFFFFF;stop-opacity:0.8" />
      <stop offset="50%" style="stop-color:#FF792D;stop-opacity:1" />
      <stop offset="100%" style="stop-color:#FFFFFF;stop-opacity:0.8" />
    </linearGradient>
  </defs>

  <!-- Bow shadow -->
  <path d="M20,50 Q20,20 50,20 Q80,20 80,50 Q80,80 50,80 Q20,80 20,50" fill="#000000" fill-opacity="0.2" transform="translate(2,2)"/>
  <circle cx="50" cy="20" r="3" fill="#000000" fill-opacity="0.2" transform="translate(2,2)"/>
  <circle cx="50" cy="80" r="3" fill="#000000" fill-opacity="0.2" transform="translate(2,2)"/>

  <!-- Bow body -->
  <path d="M20,50 Q20,20 50,20 Q80,20 80,50 Q80,80 50,80 Q20,80 20,50" fill="none" stroke="url(#grad2)" stroke-width="6" filter="url(#shadow2)"/>
  <circle cx="50" cy="20" r="3" fill="url(#grad2)"/>
  <circle cx="50" cy="80" r="3" fill="url(#grad2)"/>

  <!-- Arrow shadow -->
  <line x1="50" y1="50" x2="80" y2="30" stroke="#000000" stroke-width="4" stroke-opacity="0.2" transform="translate(2,2)"/>
  <polygon points="80,30 85,35 75,35" fill="#000000" fill-opacity="0.2" transform="translate(2,2)"/>

  <!-- Arrow -->
  <line x1="50" y1="50" x2="80" y2="30" stroke="#676000" stroke-width="4"/>
  <polygon points="80,30 85,35 75,35" fill="#676000"/>
  <line x1="50" y1="50" x2="45" y2="50" stroke="#676000" stroke-width="2"/>
  <line x1="50" y1="50" x2="48" y2="47" stroke="#676000" stroke-width="2"/>
  <line x1="50" y1="50" x2="48" y2="53" stroke="#676000" stroke-width="2"/>

  <!-- Bow string -->
  <line x1="20" y1="50" x2="80" y2="50" stroke="url(#stringGrad)" stroke-width="3"/>
</svg>
