<svg width="100" height="100" viewBox="0 0 100 100" xmlns="http://www.w3.org/2000/svg">
  <defs>
    <radialGradient id="grad1" cx="50%" cy="30%" r="70%">
      <stop offset="0%" style="stop-color:#FF9B5A;stop-opacity:1" />
      <stop offset="50%" style="stop-color:#FF792D;stop-opacity:1" />
      <stop offset="100%" style="stop-color:#8D4E2E;stop-opacity:1" />
    </radialGradient>
    <filter id="shadow1" x="-20%" y="-20%" width="140%" height="140%">
      <feDropShadow dx="2" dy="2" stdDeviation="2" flood-color="#000000" flood-opacity="0.3"/>
    </filter>
    <linearGradient id="highlight1" x1="0%" y1="0%" x2="100%" y2="100%">
      <stop offset="0%" style="stop-color:#FFFFFF;stop-opacity:0.4" />
      <stop offset="100%" style="stop-color:#FFFFFF;stop-opacity:0" />
    </linearGradient>
  </defs>

  <!-- Shadow -->
  <polygon points="50,10 61,35 90,35 68,57 79,82 50,70 21,82 32,57 10,35 39,35" fill="#000000" fill-opacity="0.2" transform="translate(2,2)"/>

  <!-- Main star -->
  <polygon points="50,10 61,35 90,35 68,57 79,82 50,70 21,82 32,57 10,35 39,35" fill="url(#grad1)" stroke="#676000" stroke-width="2" filter="url(#shadow1)"/>

  <!-- Inner highlight -->
  <polygon points="50,15 58,35 85,35 65,55 75,78 50,68 25,78 35,55 15,35 42,35" fill="url(#highlight1)"/>
</svg>
