<svg width="100" height="100" viewBox="0 0 100 100" xmlns="http://www.w3.org/2000/svg">
  <defs>
    <radialGradient id="grad8" cx="50%" cy="30%" r="80%">
      <stop offset="0%" style="stop-color:#FF9B5A;stop-opacity:1" />
      <stop offset="50%" style="stop-color:#FF792D;stop-opacity:1" />
      <stop offset="100%" style="stop-color:#8D4E2E;stop-opacity:1" />
    </radialGradient>
    <filter id="shadow8" x="-20%" y="-20%" width="140%" height="140%">
      <feDropShadow dx="2" dy="2" stdDeviation="2" flood-color="#000000" flood-opacity="0.3"/>
    </filter>
    <linearGradient id="goldGrad" x1="0%" y1="0%" x2="100%" y2="100%">
      <stop offset="0%" style="stop-color:#FFD700;stop-opacity:1" />
      <stop offset="50%" style="stop-color:#FFA500;stop-opacity:1" />
      <stop offset="100%" style="stop-color:#FF8C00;stop-opacity:1" />
    </linearGradient>
    <linearGradient id="jewelGrad" x1="0%" y1="0%" x2="100%" y2="100%">
      <stop offset="0%" style="stop-color:#FF69B4;stop-opacity:1" />
      <stop offset="50%" style="stop-color:#FF1493;stop-opacity:1" />
      <stop offset="100%" style="stop-color:#DC143C;stop-opacity:1" />
    </linearGradient>
  </defs>

  <!-- Crown shadow -->
  <polygon points="20,70 80,70 75,50 65,60 55,45 45,60 35,50" fill="#000000" fill-opacity="0.2" transform="translate(2,2)"/>
  <polygon points="25,30 35,50 45,35 55,50 65,35 75,50 85,30" fill="#000000" fill-opacity="0.2" transform="translate(2,2)"/>

  <!-- Crown base -->
  <polygon points="20,70 80,70 75,50 65,60 55,45 45,60 35,50" fill="url(#grad8)" stroke="#676000" stroke-width="3" filter="url(#shadow8)"/>
  <!-- Crown points -->
  <polygon points="25,30 35,50 45,35 55,50 65,35 75,50 85,30" fill="url(#goldGrad)" stroke="#676000" stroke-width="2" filter="url(#shadow8)"/>

  <!-- Crown band -->
  <rect x="22" y="65" width="56" height="8" fill="url(#goldGrad)" stroke="#676000" stroke-width="1"/>
  <rect x="25" y="68" width="50" height="2" fill="#8D4E2E"/>

  <!-- Gems -->
  <circle cx="35" cy="42" r="4" fill="url(#jewelGrad)" stroke="#FF1493" stroke-width="1"/>
  <circle cx="50" cy="40" r="4" fill="url(#jewelGrad)" stroke="#FF1493" stroke-width="1"/>
  <circle cx="65" cy="42" r="4" fill="url(#jewelGrad)" stroke="#FF1493" stroke-width="1"/>
  <!-- Gem highlights -->
  <circle cx="36" cy="41" r="1.5" fill="#FFFFFF" fill-opacity="0.8"/>
  <circle cx="51" cy="39" r="1.5" fill="#FFFFFF" fill-opacity="0.8"/>
  <circle cx="66" cy="41" r="1.5" fill="#FFFFFF" fill-opacity="0.8"/>

  <!-- Crosses on points -->
  <line x1="30" y1="35" x2="30" y2="45" stroke="#676000" stroke-width="1"/>
  <line x1="28" y1="40" x2="32" y2="40" stroke="#676000" stroke-width="1"/>
  <line x1="45" y1="30" x2="45" y2="40" stroke="#676000" stroke-width="1"/>
  <line x1="43" y1="35" x2="47" y2="35" stroke="#676000" stroke-width="1"/>
  <line x1="60" y1="30" x2="60" y2="40" stroke="#676000" stroke-width="1"/>
  <line x1="58" y1="35" x2="62" y2="35" stroke="#676000" stroke-width="1"/>
  <line x1="75" y1="35" x2="75" y2="45" stroke="#676000" stroke-width="1"/>
  <line x1="73" y1="40" x2="77" y2="40" stroke="#676000" stroke-width="1"/>
</svg>
