<svg height="512" viewBox="0 0 128 128" width="512" xmlns="http://www.w3.org/2000/svg"><g><path d="m76.045 120.75a1.747 1.747 0 0 1 -1.418-.723l-39.852-55a1.75 1.75 0 0 1 0-2.054l39.852-55a1.75 1.75 0 0 1 2.834 2.054l-39.108 53.973 39.108 53.973a1.751 1.751 0 0 1 -1.416 2.777z" fill="#d58559"/><path d="m75.653 121.5a3 3 0 0 1 -3-3v-2.214a14.544 14.544 0 0 1 9.426-13.807 8.86 8.86 0 0 0 5.874-8.312 12.287 12.287 0 0 0 -3.471-8.592 12.117 12.117 0 0 1 -3.529-8.393v-26.364a12 12 0 0 1 3.492-8.355 12.276 12.276 0 0 0 3.493-8.012 9.154 9.154 0 0 0 -5.8-8.912 14.892 14.892 0 0 1 -9.483-13.825v-2.214a3 3 0 0 1 3-3 3 3 0 0 1 3 3v2.214a8.846 8.846 0 0 0 5.736 8.263 14.892 14.892 0 0 1 9.564 13.856 18.253 18.253 0 0 1 -5.41 13.019 5.6 5.6 0 0 0 -1.59 3.981v26.267a5.763 5.763 0 0 0 1.625 4.088 18.293 18.293 0 0 1 5.29 14.78 14.683 14.683 0 0 1 -9.6 12.105 8.863 8.863 0 0 0 -5.618 8.218v2.209a3 3 0 0 1 -2.999 3z" fill="#f2a66c"/><rect fill="#663325" height="24" rx="3" width="9" x="79.453" y="52"/><path d="m17.667 61h91.878v6h-91.878z" fill="#ededf9"/><path d="m121.5 64-18 8.139v-16.278z" fill="#f9d42f"/><path d="m21.446 58h-14.946l3.054 6-3.054 6h14.946l3.054-6z" fill="#f9d42f"/><path d="m24.5 64h-14.946l-3.054-7h14.946z" fill="#fb9401"/></g></svg>