<svg height="497pt" viewBox="0 -32 497.58551 497" width="497pt" xmlns="http://www.w3.org/2000/svg"><path d="m400.554688 201.835938 47.238281-34.199219-12.558594-14.671875h-60.304687zm0 0" fill="#545c66"/><path d="m97.488281 201.835938-47.238281-34.199219 12.558594-14.671875h60.304687zm0 0" fill="#545c66"/><path d="m418.457031 134.851562 21.757813 25.441407h-19.4375s-12.320313 1.511719-16 16c-1.761719 6.960937-11.039063 62.398437-20.242188 118.230469h-.078125l-108.800781-73.75-.167969-.089844c.808594-2.628906 1.28125-5.4375 1.28125-8.398438 0-4.402344-1.039062-8.488281-2.878906-12.160156l.167969-.082031 85.679687-78.246094c17.117188 6.878906 41.039063 14.488281 52.558594 14.488281 1.839844.007813 3.917969-.480468 6.160156-1.433594zm0 0" fill="#656d78"/><path d="m92.777344 176.292969c-3.679688-14.488281-16-16-16-16h-20.242188l21.769532-25.441407c2.230468.953126 4.320312 1.441407 6.160156 1.441407 11.761718 0 36.167968-7.839844 53.359375-14.800781l.167969.3125 85.679687 78.25c-1.839844 3.671874-2.878906 7.828124-2.878906 12.230468 0 2.960938.480469 5.839844 1.359375 8.488282l-108.878906 73.75-.234376.089843c-9.222656-55.921875-18.503906-111.359375-20.261718-118.320312zm0 0" fill="#656d78"/><path d="m229.015625 232.0625c.640625.71875 1.359375 1.359375 2.160156 2l-.078125.078125-115.039062 77.832031-.242188.089844c-.878906-5.769531-1.832031-11.609375-2.800781-17.449219l.234375-.089843 108.878906-73.75c1.367188 4.320312 3.769532 8.160156 6.886719 11.289062zm0 0" fill="#ed5565"/><path d="m268.535156 231.972656c3.203125-3.121094 5.601563-6.960937 6.960938-11.28125l.167968.089844 108.800782 73.75h.078125c-.871094 5.839844-1.832031 11.691406-2.796875 17.449219h-.082032l-114.960937-77.832031-.167969-.238282c.722656-.5625 1.363282-1.203125 2-1.832031zm0 0" fill="#ed5565"/><path d="m153.738281 114.523438 80.796875 73.769531c-2 1.128906-3.832031 2.558593-5.511718 4.230469v.089843c-2.238282 2.167969-4.085938 4.640625-5.359376 7.449219l-85.679687-78.25-.167969-.3125c6.71875-2.808594 12.398438-5.4375 15.679688-7.359375zm0 0" fill="#ed5565"/><path d="m359.738281 121.804688-85.679687 78.25-.167969.078124c-1.273437-2.878906-3.121094-5.449218-5.363281-7.609374-1.597656-1.589844-3.359375-3.03125-5.359375-4.230469l80.808593-73.769531c3.441407 1.929687 9.121094 4.570312 15.761719 7.28125zm0 0" fill="#ed5565"/><path d="m381.015625 148.292969c-2.207031 0-4.039063-1.792969-4.039063-4s1.753907-4 3.953126-4h.085937c2.199219 0 4 1.792969 4 4s-1.789063 4-4 4zm0 0" fill="#545c66"/><path d="m117.015625 148.292969c-2.207031 0-4.039063-1.792969-4.039063-4s1.753907-4 3.953126-4h.085937c2.199219 0 4 1.792969 4 4s-1.789063 4-4 4zm0 0" fill="#545c66"/><path d="m348.777344 432.292969h-200c-8.878906 0-16-7.128907-16-16 0 0-8-49.921875-16.960938-104.230469l.242188-.089844 115.039062-77.832031.078125-.078125c4.808594 3.910156 10.882813 6.230469 17.601563 6.230469s12.960937-2.398438 17.757812-6.398438l.167969.238281 114.960937 77.832032h.082032c-8.882813 54.398437-16.960938 104.320312-16.960938 104.320312-.007812 8.878906-7.128906 16.007813-16.007812 16.007813zm0 0" fill="#656d78"/><path d="m248.777344 224.292969c6.640625 0 12-5.359375 12-12s-5.359375-12-12-12-12 5.359375-12 12 5.359375 12 12 12zm-26.640625-3.511719c-.878907-2.640625-1.359375-5.519531-1.359375-8.488281 0-4.398438 1.039062-8.558594 2.878906-12.230469 1.273438-2.808594 3.121094-5.28125 5.359375-7.449219v-.089843c1.679687-1.671876 3.511719-3.109376 5.511719-4.230469 4.167968-2.558594 9.042968-4 14.242187-4 5.277344 0 10.238281 1.441406 14.398438 4 2 1.199219 3.761719 2.640625 5.359375 4.230469 2.242187 2.167968 4.089844 4.730468 5.363281 7.609374 1.839844 3.671876 2.878906 7.761719 2.878906 12.160157 0 2.960937-.480469 5.769531-1.28125 8.398437-1.359375 4.320313-3.757812 8.167969-6.960937 11.28125v.089844c-.636719.628906-1.277344 1.269531-2 1.832031-4.796875 4-11.039063 6.398438-17.757813 6.398438-6.722656 0-12.800781-2.320313-17.601562-6.230469-.800781-.640625-1.511719-1.28125-2.160157-2-3.109374-3.128906-5.511718-6.96875-6.871093-11.28125zm0 0" fill="#ffce54"/><path d="m260.777344 212.292969c0 6.628906-5.375 12-12 12-6.628906 0-12-5.371094-12-12 0-6.628907 5.371094-12 12-12 6.625 0 12 5.371093 12 12zm0 0" fill="#656d78"/><path d="m205.65625 68.132812c8.234375 2.3125 27.679688 4.160157 43.121094 4.160157 15.121094 0 34.398437-1.769531 42.640625-4l7.917969-.558594c.160156 2 .640624 3.519531 1.28125 4.40625 4.871093 6.160156 30.550781 12.640625 46.230468 11.28125-.550781 1.109375-11.4375 23.511719-6.078125 28.871094.558594.558593 1.679688 1.359375 3.199219 2.230469l-80.792969 73.769531c-4.160156-2.558594-9.117187-4-14.398437-4-5.199219 0-10.082032 1.441406-14.242188 4l-80.796875-73.769531-.242187-.390626c1.128906-.71875 2-1.359374 2.488281-1.839843 5.511719-5.511719-6.085937-28.960938-6.085937-28.960938 15.597656 1.679688 42.085937-4.960937 47.039062-11.191406.640625-.878906 1.128906-2.40625 1.277344-4.40625zm0 0" fill="#656d78"/><path d="m205.65625 68.132812c8.234375 2.3125 27.679688 4.160157 43.121094 4.160157 15.121094 0 34.398437-1.769531 42.640625-4l7.917969-.558594c.160156 2 .640624 3.519531 1.28125 4.40625 4.871093 6.160156 30.550781 12.640625 46.230468 11.28125-.550781 1.109375-11.4375 23.511719-6.078125 28.871094.558594.558593 1.679688 1.359375 3.199219 2.230469l-80.792969 73.769531c-4.160156-2.558594-9.117187-4-14.398437-4-5.199219 0-10.082032 1.441406-14.242188 4l-80.796875-73.769531-.242187-.390626c1.128906-.71875 2-1.359374 2.488281-1.839843 5.511719-5.511719-6.085937-28.960938-6.085937-28.960938 15.597656 1.679688 42.085937-4.960937 47.039062-11.191406.640625-.878906 1.128906-2.40625 1.277344-4.40625zm0 0" fill="#656d78"/><g fill="#545c66"><path d="m152.777344 340.285156c-8.824219 0-16-7.175781-16-16 0-2.207031 1.792968-4 4-4 2.207031 0 4 1.792969 4 4 0 4.414063 3.582031 8 8 8 4.414062 0 8-3.585937 8-8 0-2.207031 1.792968-4 4-4 2.207031 0 4 1.792969 4 4 0 8.824219-7.175782 16-16 16zm0 0"/><path d="m176.777344 340.285156c-8.824219 0-16-7.175781-16-16 0-2.207031 1.792968-4 4-4 2.207031 0 4 1.792969 4 4 0 4.414063 3.582031 8 8 8 4.414062 0 8-3.585937 8-8 0-2.207031 1.792968-4 4-4 2.207031 0 4 1.792969 4 4 0 8.824219-7.175782 16-16 16zm0 0"/><path d="m200.777344 340.285156c-8.824219 0-16-7.175781-16-16 0-2.207031 1.792968-4 4-4 2.207031 0 4 1.792969 4 4 0 4.414063 3.582031 8 8 8 4.414062 0 8-3.585937 8-8 0-2.207031 1.792968-4 4-4 2.207031 0 4 1.792969 4 4 0 8.824219-7.175782 16-16 16zm0 0"/><path d="m224.777344 340.285156c-8.824219 0-16-7.175781-16-16 0-2.207031 1.792968-4 4-4 2.207031 0 4 1.792969 4 4 0 4.414063 3.582031 8 8 8 4.414062 0 8-3.585937 8-8 0-2.207031 1.792968-4 4-4 2.207031 0 4 1.792969 4 4 0 8.824219-7.175782 16-16 16zm0 0"/><path d="m248.777344 340.285156c-8.824219 0-16-7.175781-16-16 0-2.207031 1.792968-4 4-4 2.207031 0 4 1.792969 4 4 0 4.414063 3.582031 8 8 8 4.414062 0 8-3.585937 8-8 0-2.207031 1.792968-4 4-4 2.207031 0 4 1.792969 4 4 0 8.824219-7.175782 16-16 16zm0 0"/><path d="m272.777344 340.285156c-8.824219 0-16-7.175781-16-16 0-2.207031 1.792968-4 4-4 2.207031 0 4 1.792969 4 4 0 4.414063 3.582031 8 8 8 4.414062 0 8-3.585937 8-8 0-2.207031 1.792968-4 4-4 2.207031 0 4 1.792969 4 4 0 8.824219-7.175782 16-16 16zm0 0"/><path d="m296.777344 340.285156c-8.824219 0-16-7.175781-16-16 0-2.207031 1.792968-4 4-4 2.207031 0 4 1.792969 4 4 0 4.414063 3.582031 8 8 8 4.414062 0 8-3.585937 8-8 0-2.207031 1.792968-4 4-4 2.207031 0 4 1.792969 4 4 0 8.824219-7.175782 16-16 16zm0 0"/><path d="m320.777344 340.285156c-8.824219 0-16-7.175781-16-16 0-2.207031 1.792968-4 4-4 2.207031 0 4 1.792969 4 4 0 4.414063 3.582031 8 8 8 4.414062 0 8-3.585937 8-8 0-2.207031 1.792968-4 4-4 2.207031 0 4 1.792969 4 4 0 8.824219-7.175782 16-16 16zm0 0"/><path d="m344.777344 340.285156c-8.824219 0-16-7.175781-16-16 0-2.207031 1.792968-4 4-4 2.207031 0 4 1.792969 4 4 0 4.414063 3.582031 8 8 8 4.414062 0 8-3.585937 8-8 0-2.207031 1.792968-4 4-4 2.207031 0 4 1.792969 4 4 0 8.824219-7.175782 16-16 16zm0 0"/><path d="m164.777344 364.285156c-8.824219 0-16-7.175781-16-16 0-2.207031 1.792968-4 4-4 2.207031 0 4 1.792969 4 4 0 4.414063 3.582031 8 8 8 4.414062 0 8-3.585937 8-8 0-2.207031 1.792968-4 4-4 2.207031 0 4 1.792969 4 4 0 8.824219-7.175782 16-16 16zm0 0"/><path d="m188.777344 364.285156c-8.824219 0-16-7.175781-16-16 0-2.207031 1.792968-4 4-4 2.207031 0 4 1.792969 4 4 0 4.414063 3.582031 8 8 8 4.414062 0 8-3.585937 8-8 0-2.207031 1.792968-4 4-4 2.207031 0 4 1.792969 4 4 0 8.824219-7.175782 16-16 16zm0 0"/><path d="m212.777344 364.285156c-8.824219 0-16-7.175781-16-16 0-2.207031 1.792968-4 4-4 2.207031 0 4 1.792969 4 4 0 4.414063 3.582031 8 8 8 4.414062 0 8-3.585937 8-8 0-2.207031 1.792968-4 4-4 2.207031 0 4 1.792969 4 4 0 8.824219-7.175782 16-16 16zm0 0"/><path d="m236.777344 364.285156c-8.824219 0-16-7.175781-16-16 0-2.207031 1.792968-4 4-4 2.207031 0 4 1.792969 4 4 0 4.414063 3.582031 8 8 8 4.414062 0 8-3.585937 8-8 0-2.207031 1.792968-4 4-4 2.207031 0 4 1.792969 4 4 0 8.824219-7.175782 16-16 16zm0 0"/><path d="m260.777344 364.285156c-8.824219 0-16-7.175781-16-16 0-2.207031 1.792968-4 4-4 2.207031 0 4 1.792969 4 4 0 4.414063 3.582031 8 8 8 4.414062 0 8-3.585937 8-8 0-2.207031 1.792968-4 4-4 2.207031 0 4 1.792969 4 4 0 8.824219-7.175782 16-16 16zm0 0"/><path d="m284.777344 364.285156c-8.824219 0-16-7.175781-16-16 0-2.207031 1.792968-4 4-4 2.207031 0 4 1.792969 4 4 0 4.414063 3.582031 8 8 8 4.414062 0 8-3.585937 8-8 0-2.207031 1.792968-4 4-4 2.207031 0 4 1.792969 4 4 0 8.824219-7.175782 16-16 16zm0 0"/><path d="m308.777344 364.285156c-8.824219 0-16-7.175781-16-16 0-2.207031 1.792968-4 4-4 2.207031 0 4 1.792969 4 4 0 4.414063 3.582031 8 8 8 4.414062 0 8-3.585937 8-8 0-2.207031 1.792968-4 4-4 2.207031 0 4 1.792969 4 4 0 8.824219-7.175782 16-16 16zm0 0"/><path d="m332.777344 364.285156c-8.824219 0-16-7.175781-16-16 0-2.207031 1.792968-4 4-4 2.207031 0 4 1.792969 4 4 0 4.414063 3.582031 8 8 8 4.414062 0 8-3.585937 8-8 0-2.207031 1.792968-4 4-4 2.207031 0 4 1.792969 4 4 0 8.824219-7.175782 16-16 16zm0 0"/><path d="m176.777344 388.285156c-8.824219 0-16-7.175781-16-16 0-2.207031 1.792968-4 4-4 2.207031 0 4 1.792969 4 4 0 4.414063 3.582031 8 8 8 4.414062 0 8-3.585937 8-8 0-2.207031 1.792968-4 4-4 2.207031 0 4 1.792969 4 4 0 8.824219-7.175782 16-16 16zm0 0"/><path d="m200.777344 388.285156c-8.824219 0-16-7.175781-16-16 0-2.207031 1.792968-4 4-4 2.207031 0 4 1.792969 4 4 0 4.414063 3.582031 8 8 8 4.414062 0 8-3.585937 8-8 0-2.207031 1.792968-4 4-4 2.207031 0 4 1.792969 4 4 0 8.824219-7.175782 16-16 16zm0 0"/><path d="m224.777344 388.285156c-8.824219 0-16-7.175781-16-16 0-2.207031 1.792968-4 4-4 2.207031 0 4 1.792969 4 4 0 4.414063 3.582031 8 8 8 4.414062 0 8-3.585937 8-8 0-2.207031 1.792968-4 4-4 2.207031 0 4 1.792969 4 4 0 8.824219-7.175782 16-16 16zm0 0"/><path d="m248.777344 388.285156c-8.824219 0-16-7.175781-16-16 0-2.207031 1.792968-4 4-4 2.207031 0 4 1.792969 4 4 0 4.414063 3.582031 8 8 8 4.414062 0 8-3.585937 8-8 0-2.207031 1.792968-4 4-4 2.207031 0 4 1.792969 4 4 0 8.824219-7.175782 16-16 16zm0 0"/><path d="m272.777344 388.285156c-8.824219 0-16-7.175781-16-16 0-2.207031 1.792968-4 4-4 2.207031 0 4 1.792969 4 4 0 4.414063 3.582031 8 8 8 4.414062 0 8-3.585937 8-8 0-2.207031 1.792968-4 4-4 2.207031 0 4 1.792969 4 4 0 8.824219-7.175782 16-16 16zm0 0"/><path d="m296.777344 388.285156c-8.824219 0-16-7.175781-16-16 0-2.207031 1.792968-4 4-4 2.207031 0 4 1.792969 4 4 0 4.414063 3.582031 8 8 8 4.414062 0 8-3.585937 8-8 0-2.207031 1.792968-4 4-4 2.207031 0 4 1.792969 4 4 0 8.824219-7.175782 16-16 16zm0 0"/><path d="m320.777344 388.285156c-8.824219 0-16-7.175781-16-16 0-2.207031 1.792968-4 4-4 2.207031 0 4 1.792969 4 4 0 4.414063 3.582031 8 8 8 4.414062 0 8-3.585937 8-8 0-2.207031 1.792968-4 4-4 2.207031 0 4 1.792969 4 4 0 8.824219-7.175782 16-16 16zm0 0"/><path d="m344.777344 388.285156c-8.824219 0-16-7.175781-16-16 0-2.207031 1.792968-4 4-4 2.207031 0 4 1.792969 4 4 0 4.414063 3.582031 8 8 8 4.414062 0 8-3.585937 8-8 0-2.207031 1.792968-4 4-4 2.207031 0 4 1.792969 4 4 0 8.824219-7.175782 16-16 16zm0 0"/><path d="m152.777344 388.285156c-8.824219 0-16-7.175781-16-16 0-2.207031 1.792968-4 4-4 2.207031 0 4 1.792969 4 4 0 4.414063 3.582031 8 8 8 4.414062 0 8-3.585937 8-8 0-2.207031 1.792968-4 4-4 2.207031 0 4 1.792969 4 4 0 8.824219-7.175782 16-16 16zm0 0"/><path d="m188.777344 412.285156c-8.824219 0-16-7.175781-16-16 0-2.207031 1.792968-4 4-4 2.207031 0 4 1.792969 4 4 0 4.414063 3.582031 8 8 8 4.414062 0 8-3.585937 8-8 0-2.207031 1.792968-4 4-4 2.207031 0 4 1.792969 4 4 0 8.824219-7.175782 16-16 16zm0 0"/><path d="m212.777344 412.285156c-8.824219 0-16-7.175781-16-16 0-2.207031 1.792968-4 4-4 2.207031 0 4 1.792969 4 4 0 4.414063 3.582031 8 8 8 4.414062 0 8-3.585937 8-8 0-2.207031 1.792968-4 4-4 2.207031 0 4 1.792969 4 4 0 8.824219-7.175782 16-16 16zm0 0"/><path d="m236.777344 412.285156c-8.824219 0-16-7.175781-16-16 0-2.207031 1.792968-4 4-4 2.207031 0 4 1.792969 4 4 0 4.414063 3.582031 8 8 8 4.414062 0 8-3.585937 8-8 0-2.207031 1.792968-4 4-4 2.207031 0 4 1.792969 4 4 0 8.824219-7.175782 16-16 16zm0 0"/><path d="m260.777344 412.285156c-8.824219 0-16-7.175781-16-16 0-2.207031 1.792968-4 4-4 2.207031 0 4 1.792969 4 4 0 4.414063 3.582031 8 8 8 4.414062 0 8-3.585937 8-8 0-2.207031 1.792968-4 4-4 2.207031 0 4 1.792969 4 4 0 8.824219-7.175782 16-16 16zm0 0"/><path d="m284.777344 412.285156c-8.824219 0-16-7.175781-16-16 0-2.207031 1.792968-4 4-4 2.207031 0 4 1.792969 4 4 0 4.414063 3.582031 8 8 8 4.414062 0 8-3.585937 8-8 0-2.207031 1.792968-4 4-4 2.207031 0 4 1.792969 4 4 0 8.824219-7.175782 16-16 16zm0 0"/><path d="m308.777344 412.285156c-8.824219 0-16-7.175781-16-16 0-2.207031 1.792968-4 4-4 2.207031 0 4 1.792969 4 4 0 4.414063 3.582031 8 8 8 4.414062 0 8-3.585937 8-8 0-2.207031 1.792968-4 4-4 2.207031 0 4 1.792969 4 4 0 8.824219-7.175782 16-16 16zm0 0"/><path d="m332.777344 412.285156c-8.824219 0-16-7.175781-16-16 0-2.207031 1.792968-4 4-4 2.207031 0 4 1.792969 4 4 0 4.414063 3.582031 8 8 8 4.414062 0 8-3.585937 8-8 0-2.207031 1.792968-4 4-4 2.207031 0 4 1.792969 4 4 0 8.824219-7.175782 16-16 16zm0 0"/><path d="m164.777344 412.285156c-8.824219 0-16-7.175781-16-16 0-2.207031 1.792968-4 4-4 2.207031 0 4 1.792969 4 4 0 4.414063 3.582031 8 8 8 4.414062 0 8-3.585937 8-8 0-2.207031 1.792968-4 4-4 2.207031 0 4 1.792969 4 4 0 8.824219-7.175782 16-16 16zm0 0"/><path d="m208.777344 292.285156c-1.023438 0-2.046875-.390625-2.832032-1.167968-1.5625-1.558594-1.5625-4.097657 0-5.65625l8-8c1.558594-1.558594 4.09375-1.558594 5.65625 0 1.558594 1.558593 1.558594 4.097656 0 5.65625l-8 8c-.777343.777343-1.800781 1.167968-2.824218 1.167968zm0 0"/><path d="m224.777344 292.285156c-1.023438 0-2.046875-.390625-2.832032-1.167968l-8-8c-1.5625-1.558594-1.5625-4.097657 0-5.65625 1.558594-1.558594 4.09375-1.558594 5.65625 0l8 8c1.558594 1.558593 1.558594 4.097656 0 5.65625-.777343.777343-1.800781 1.167968-2.824218 1.167968zm0 0"/><path d="m224.777344 292.285156c-1.023438 0-2.046875-.390625-2.832032-1.167968-1.5625-1.558594-1.5625-4.097657 0-5.65625l8-8c1.558594-1.558594 4.09375-1.558594 5.65625 0 1.558594 1.558593 1.558594 4.097656 0 5.65625l-8 8c-.777343.777343-1.800781 1.167968-2.824218 1.167968zm0 0"/><path d="m240.777344 292.285156c-1.023438 0-2.046875-.390625-2.832032-1.167968l-8-8c-1.5625-1.558594-1.5625-4.097657 0-5.65625 1.558594-1.558594 4.09375-1.558594 5.65625 0l8 8c1.558594 1.558593 1.558594 4.097656 0 5.65625-.777343.777343-1.800781 1.167968-2.824218 1.167968zm0 0"/><path d="m240.777344 292.285156c-1.023438 0-2.046875-.390625-2.832032-1.167968-1.5625-1.558594-1.5625-4.097657 0-5.65625l8-8c1.558594-1.558594 4.09375-1.558594 5.65625 0 1.558594 1.558593 1.558594 4.097656 0 5.65625l-8 8c-.777343.777343-1.800781 1.167968-2.824218 1.167968zm0 0"/><path d="m256.777344 292.285156c-1.023438 0-2.046875-.390625-2.832032-1.167968l-8-8c-1.5625-1.558594-1.5625-4.097657 0-5.65625 1.558594-1.558594 4.09375-1.558594 5.65625 0l8 8c1.558594 1.558593 1.558594 4.097656 0 5.65625-.777343.777343-1.800781 1.167968-2.824218 1.167968zm0 0"/><path d="m256.777344 292.285156c-1.023438 0-2.046875-.390625-2.832032-1.167968-1.5625-1.558594-1.5625-4.097657 0-5.65625l8-8c1.558594-1.558594 4.09375-1.558594 5.65625 0 1.558594 1.558593 1.558594 4.097656 0 5.65625l-8 8c-.777343.777343-1.800781 1.167968-2.824218 1.167968zm0 0"/><path d="m272.777344 292.285156c-1.023438 0-2.046875-.390625-2.832032-1.167968l-8-8c-1.5625-1.558594-1.5625-4.097657 0-5.65625 1.558594-1.558594 4.09375-1.558594 5.65625 0l8 8c1.558594 1.558593 1.558594 4.097656 0 5.65625-.777343.777343-1.800781 1.167968-2.824218 1.167968zm0 0"/><path d="m272.777344 292.285156c-1.023438 0-2.046875-.390625-2.832032-1.167968-1.5625-1.558594-1.5625-4.097657 0-5.65625l8-8c1.558594-1.558594 4.09375-1.558594 5.65625 0 1.558594 1.558593 1.558594 4.097656 0 5.65625l-8 8c-.777343.777343-1.800781 1.167968-2.824218 1.167968zm0 0"/><path d="m288.777344 292.285156c-1.023438 0-2.046875-.390625-2.832032-1.167968l-8-8c-1.5625-1.558594-1.5625-4.097657 0-5.65625 1.558594-1.558594 4.09375-1.558594 5.65625 0l8 8c1.558594 1.558593 1.558594 4.097656 0 5.65625-.777343.777343-1.800781 1.167968-2.824218 1.167968zm0 0"/></g><path d="m455.753906 91.804688c.03125 0 2.390625 2.734374 5.246094 6.070312l34.570312 40.335938c2.855469 3.347656 2.65625 8.625-.457031 11.738281l-28.6875 28.6875c-3.113281 3.113281-8 2.921875-10.855469-.425781l-10.160156-11.839844c-2.855468-3.34375-7.539062-8.8125-10.410156-12.160156l-16.566406-19.375c-2.855469-3.34375-2.367188-8.296876 1.09375-11.007813l30.753906-26.152344c2.992188-3.222656 5.449219-5.871093 5.472656-5.871093zm0 0" fill="#ccd1d9"/><path d="m398.535156 39.652344 70.242188 49.128906s-3.039063 3.75-7.839844 9.121094c-10.402344 11.832031-29.191406 31.597656-42.480469 36.957031-2.242187.953125-4.320312 1.441406-6.160156 1.441406-11.519531 0-35.449219-7.601562-52.558594-14.488281-6.640625-2.71875-12.320312-5.359375-15.761719-7.28125-1.519531-.871094-2.640624-1.671875-3.199218-2.230469-5.359375-5.359375 5.519531-27.769531 6.078125-28.871093 4.167969-.410157 7.601562-1.28125 9.769531-2.96875 13.832031-10.488282 31.511719-29.207032 41.910156-40.808594zm0 0" fill="#aab2bd"/><path d="m346.855469 83.421875c-15.679688 1.359375-41.359375-5.128906-46.230469-11.28125-.640625-.878906-1.128906-2.40625-1.28125-4.40625-1.519531-13.761719 5.914062-50.800781 8.554688-63.28125.558593-2.640625.878906-4.160156.878906-4.160156l98.640625 29.359375s-3.441407 4.082031-8.882813 10c-10.398437 11.601562-28.078125 30.320312-41.910156 40.800781-2.167969 1.679687-5.609375 2.558594-9.769531 2.96875zm0 0" fill="#ccd1d9"/><path d="m299.425781 68.292969c-8.242187 2.230469-35.527343 4-50.648437 4-15.441406 0-42.886719-1.839844-51.128906-4.160157l.558593-.40625c1.601563-14.234374-6.476562-53.441406-8.796875-64.480468l-.195312-.792969c10.472656-1.289063 40.921875-2.160156 59.5625-2.160156s49.191406.871093 59.589844 2.160156l-.476563 2c-2.640625 12.488281-10.082031 49.519531-8.554687 63.28125zm0 0" fill="#545c66"/><path d="m41.832031 91.804688c-.03125 0-2.390625 2.734374-5.246093 6.078124l-34.570313 40.339844c-2.855469 3.335938-2.65625 8.613282.457031 11.726563l28.6875 28.6875c3.113282 3.113281 8 2.921875 10.855469-.414063l10.160156-11.851562c2.855469-3.34375 7.535157-8.8125 10.410157-12.160156l16.566406-19.367188c2.855468-3.34375 2.367187-8.296875-1.09375-11.007812l-30.753906-26.160157c-2.992188-3.222656-5.449219-5.871093-5.472657-5.871093zm0 0" fill="#ccd1d9"/><path d="m99.046875 39.652344-70.238281 49.128906s3.039062 3.75 7.839844 9.128906c10.398437 11.832032 29.191406 31.589844 42.480468 36.949219 2.238282.953125 4.320313 1.441406 6.160156 1.441406 11.519532 0 35.449219-7.59375 52.558594-14.488281 6.640625-2.71875 12.320313-5.359375 15.761719-7.28125 1.519531-.871094 2.640625-1.671875 3.199219-2.230469 5.359375-5.359375-5.519532-27.769531-6.078125-28.871093-4.167969-.410157-7.601563-1.28125-9.769531-2.96875-13.832032-10.480469-31.511719-29.199219-41.914063-40.808594zm0 0" fill="#aab2bd"/><path d="m150.730469 83.421875c15.679687 1.359375 41.359375-5.128906 46.230469-11.28125.640624-.871094 1.128906-2.40625 1.28125-4.40625 1.519531-13.753906-5.914063-50.800781-8.554688-63.28125-.558594-2.640625-.878906-4.160156-.878906-4.160156l-98.640625 29.359375s3.441406 4.082031 8.878906 10c10.402344 11.609375 28.082031 30.328125 41.914063 40.800781 2.167968 1.679687 5.609374 2.558594 9.769531 2.96875zm0 0" fill="#ccd1d9"/></svg>