<svg height="495pt" viewBox="0 -27 495.92 495" width="495pt" xmlns="http://www.w3.org/2000/svg"><path d="m168 338.78125v72l-40-14.800781-16.078125-187.519531 56.078125-29.679688zm0 0" fill="#aab2bd"/><path d="m328 178.78125-80 29.679688-80-29.679688 79.921875-42.320312h.078125zm0 0" fill="#434a54"/><path d="m328 258.78125v80l-80 29.679688-80-29.679688v-80l80 29.679688zm0 0" fill="#434a54"/><path d="m328 338.78125v72l-80 29.679688-80-29.679688v-72l80 29.679688zm0 0" fill="#656d78"/><path d="m328 178.78125v80l-80 29.679688-80-29.679688v-80l80 29.679688zm0 0" fill="#656d78"/><path d="m384 208.460938-16 187.519531-40 14.800781v-232zm0 0" fill="#aab2bd"/><path d="m392 123.738281 32 37.042969 56-24.320312 8 48-72 16-10-32zm0 0" fill="#aab2bd"/><path d="m457.601562 80.460938 38.320313 49.117187-15.921875 6.882813-56 24.320312-32-37.042969-37.359375-43.277343 66.878906 40.078124zm0 0" fill="#ccd1d9"/><path d="m472 64.460938-14.398438 16-36.082031 40.078124-66.878906-40.078124-26.640625-16 40-64zm0 0" fill="#aab2bd"/><path d="m328 .460938-80 64-80-64zm0 0" fill="#434a54"/><path d="m248 64.460938 80-64h40l-40 64 26.640625 16 37.359375 43.277343 14 44.722657-22 40-56-29.679688-80-42.320312h-.078125l-79.921875 42.320312-56.078125 29.679688-22-40 14-44.722657 37.359375-43.277343 26.640625-16-40-64h40.078125zm0 0" fill="#656d78"/><path d="m89.921875 168.460938-10 32-72-16 8-48 56 24.320312 32-37.042969zm0 0" fill="#aab2bd"/><path d="m141.28125 80.460938-37.359375 43.277343-32 37.042969-56-24.320312-15.921875-6.882813 38.320312-49.117187 36.078126 40.078124zm0 0" fill="#ccd1d9"/><path d="m127.921875.460938 40 64-26.640625 16-66.882812 40.078124-36.078126-40.078124-14.398437-16zm0 0" fill="#aab2bd"/></svg>