<svg height="512" viewBox="0 0 128 128" width="512" xmlns="http://www.w3.org/2000/svg"><g><path d="m41.25 121.5a6 6 0 0 1 -6-6v-106a3 3 0 0 1 3-3h6a3 3 0 0 1 3 3v106a6 6 0 0 1 -6 6z" fill="#663325"/><path d="m35.25 97.5h12v6h-12z" fill="#ededf9" transform="matrix(-1 0 0 -1 82.5 201)"/><path d="m35.25 103.5h12v6h-12z" fill="#dddde3" transform="matrix(-1 0 0 -1 82.5 213)"/><path d="m32.184 18.5a3 3 0 0 1 3-3h22.75c13.834 0 23.417-2.75 30.417-7.533 5.458 7.324 7.333 14.667 7.333 25.667 0 16.3-8.875 29.333-8.875 29.333s-14.375-14.347-31-18.711a100.281 100.281 0 0 0 -20.74-3.238 3.005 3.005 0 0 1 -2.885-3z" fill="#ededf9"/><g fill="#dddde3"><path d="m95.68 33.63c0 16.3-8.87 29.34-8.87 29.34a82.456 82.456 0 0 0 -7.49-6.4 41.913 41.913 0 0 0 7.36-22.94c0-5.83-.41-13.07-5.71-21.79a36.715 36.715 0 0 0 7.38-3.87c5.46 7.32 7.33 14.66 7.33 25.66z"/><path d="m60.749 23.213a1.75 1.75 0 0 1 -.046-3.5c2.1-.056 4.145-.18 6.081-.368a1.75 1.75 0 0 1 .338 3.483c-2.017.2-4.145.325-6.324.384z"/></g></g></svg>