<svg height="512" viewBox="0 0 128 128" width="512" xmlns="http://www.w3.org/2000/svg"><g><path d="m83.346 118.827a1.749 1.749 0 0 1 -1.75-1.75v-106.154a1.75 1.75 0 0 1 3.5 0v106.154a1.75 1.75 0 0 1 -1.75 1.75z" fill="#d58559"/><path d="m84.154 121.5a3 3 0 0 1 -3-3v-.5a28.579 28.579 0 0 1 13.4-24.3 22.611 22.611 0 0 0 10.6-19.222v-20.956a22.611 22.611 0 0 0 -10.601-19.222 28.579 28.579 0 0 1 -13.399-24.3v-.5a3 3 0 0 1 3-3 3 3 0 0 1 3 3v.5a22.836 22.836 0 0 0 10.666 19.267 28.58 28.58 0 0 1 13.334 24.255v20.956a28.67 28.67 0 0 1 -13.372 24.279 22.611 22.611 0 0 0 -10.628 19.243v.5a3 3 0 0 1 -3 3z" fill="#f2a66c"/><rect fill="#663325" height="24" rx="3" width="9" x="103.654" y="52"/><path d="m106.654 52h3a3 3 0 0 1 3 3v3a0 0 0 0 1 0 0h-9a0 0 0 0 1 0 0v-3a3 3 0 0 1 3-3z" fill="#4f2217"/><path d="m103.654 64h9v6h-9z" fill="#4f2217"/><path d="m48.346 18.455h6v91.878h-6z" fill="#ededf9"/><path d="m51.346 103.5v14.946l-7 3.054v-14.946z" fill="#fb9401"/><path d="m51.346 103.5v14.946l7 3.054v-14.946z" fill="#f9d42f"/><path d="m51.346 6.5 8.139 18h-16.278z" fill="#f9d42f"/><path d="m20.485 18.455h6v91.878h-6z" fill="#ededf9"/><path d="m23.485 103.5v14.946l-7 3.054v-14.946z" fill="#fb9401"/><g fill="#f9d42f"><path d="m23.485 103.5v14.946l7 3.054v-14.946z"/><path d="m23.485 6.5 8.139 18h-16.278z"/></g></g></svg>