<svg height="512" viewBox="0 0 64 64" width="512" xmlns="http://www.w3.org/2000/svg"><g id="_13-compass" data-name="13-compass"><circle cx="32" cy="37" fill="#3c3b40" r="22"/><circle cx="32" cy="37" fill="#3c3b40" r="15"/><circle cx="32" cy="7" fill="#fffffd" r="3"/><path d="m32 17a20 20 0 1 0 20 20 20 20 0 0 0 -20-20zm0 37a17 17 0 1 1 17-17 17 17 0 0 1 -17 17z" fill="#9b6244"/><path d="m36.14 11.33a26 26 0 1 1 -8.28 0 26.134 26.134 0 0 1 8.28 0zm17.86 25.67a21.978 21.978 0 1 0 -7.2 16.29 21.994 21.994 0 0 0 7.2-16.29z" fill="#ffaf3f"/><path d="m32 10a3 3 0 1 0 -3-3 3 3 0 0 0 3 3zm-4.14 1.33a6 6 0 1 1 8.28 0 26.134 26.134 0 0 0 -8.28 0z" fill="#ffaf3f"/><path d="m32 13a24 24 0 1 0 24 24 24 24 0 0 0 -24-24zm14.8 40.29a22.028 22.028 0 1 1 7.2-16.29 21.937 21.937 0 0 1 -7.2 16.29z" fill="#c9882d"/><path d="m32 22a15 15 0 1 0 15 15 15 15 0 0 0 -15-15zm0 29a14 14 0 1 1 14-14 14 14 0 0 1 -14 14z" fill="#c9882d"/><g fill="#ffaf3f"><path d="m37.65 39.74 4.35 7.26-7.26-4.35.53-2.38z"/><path d="m29.26 42.65-7.26 4.35 4.35-7.26 2.38.53z"/><path d="m29.26 31.35-.53 2.38-2.38.53-4.35-7.26z"/><path d="m42 27-4.35 7.26-2.38-.53-.53-2.38z"/></g><path d="m34.74 42.65-2.07 9.33-.67 3.02-.67-3.02-2.07-9.33-.53-2.38.44-.44a4.025 4.025 0 0 0 2.83 1.17 3.962 3.962 0 0 0 2.54-.91l.73.18z" fill="#ffd752"/><path d="m35.27 33.73 2.38.53 9.33 2.07 3.02.67-3.02.67-9.33 2.07-2.38.53-.73-.18a4 4 0 0 0 0-6.18z" fill="#ffd752"/><path d="m28 37a4.025 4.025 0 0 0 1.17 2.83l-.44.44-2.38-.53-9.33-2.07-3.02-.67 3.02-.67 9.33-2.07 2.38-.53.44.44a4.025 4.025 0 0 0 -1.17 2.83z" fill="#ffd752"/><path d="m32.67 22.02 2.07 9.33.53 2.38-.73.18a3.962 3.962 0 0 0 -2.54-.91 4.025 4.025 0 0 0 -2.83 1.17l-.44-.44.53-2.38 2.07-9.33.67-3.02z" fill="#ffd752"/><path d="m20 24a1 1 0 0 1 -2 0 .975.975 0 0 1 .17-.56 1.022 1.022 0 0 1 .83-.44 1 1 0 0 1 1 1z" fill="#ffaf3f"/><path d="m19 49a1 1 0 0 1 0 2 1.022 1.022 0 0 1 -.83-.44.975.975 0 0 1 -.17-.56 1 1 0 0 1 1-1z" fill="#ffaf3f"/><path d="m45 49a1 1 0 1 1 -.39.08 1 1 0 0 1 .39-.08z" fill="#ffaf3f"/><path d="m45 23a1 1 0 1 1 -1 1 1 1 0 0 1 1-1z" fill="#ffaf3f"/><path d="m32 33a3.962 3.962 0 0 1 2.54.91 4 4 0 0 1 0 6.18 3.962 3.962 0 0 1 -2.54.91 4 4 0 1 1 0-8z" fill="#9b6244"/><path d="m29 7a3 3 0 1 1 4.935 2.277 6.859 6.859 0 0 1 1.028.388 4 4 0 1 0 -5.926 0 6.859 6.859 0 0 1 1.028-.388 2.977 2.977 0 0 1 -1.065-2.277z" fill="#c9882d"/><path d="m32 11a25.7 25.7 0 0 1 4.14.33 6.053 6.053 0 0 0 .508-.554 7 7 0 0 0 -1.685-1.111 3.972 3.972 0 0 1 -2.963 1.335z" fill="#de9937"/><path d="m32 11a3.972 3.972 0 0 1 -2.963-1.335 7 7 0 0 0 -1.685 1.111 6.053 6.053 0 0 0 .508.554 25.7 25.7 0 0 1 4.14-.33z" fill="#de9937"/><path d="m34.963 9.665a6.859 6.859 0 0 0 -1.028-.388 2.951 2.951 0 0 1 -3.87 0 6.859 6.859 0 0 0 -1.028.388 3.956 3.956 0 0 0 5.926 0z" fill="#b36802"/><circle cx="32" cy="37" fill="#c9882d" r="3"/><circle cx="32" cy="37" fill="#ffaf3f" r="2"/><path d="m29.17 39.83-.44.44.53 2.38 2.07 9.33.67 3.02v-14a4.025 4.025 0 0 1 -2.83-1.17z" fill="#ffb50a"/><path d="m32 41v14l.67-3.02 2.07-9.33.53-2.38-.73-.18a3.962 3.962 0 0 1 -2.54.91z" fill="#ffdf75"/><path d="m31.33 22.02-2.07 9.33-.53 2.38.44.44a4.025 4.025 0 0 1 2.83-1.17v-14z" fill="#ffb50a"/><path d="m35.27 33.73-.53-2.38-2.07-9.33-.67-3.02v14a3.962 3.962 0 0 1 2.54.91z" fill="#ffdf75"/><path d="m34.54 40.09.73.18 2.38-.53 9.33-2.07 3.02-.67h-14a4.013 4.013 0 0 1 -1.46 3.09z" fill="#ffb50a"/><path d="m37.65 34.26-2.38-.53-.73.18a4.013 4.013 0 0 1 1.46 3.09h14l-3.02-.67z" fill="#ffdf75"/><path d="m17.02 37.67 9.33 2.07 2.38.53.44-.44a4.025 4.025 0 0 1 -1.17-2.83h-14z" fill="#ffb50a"/><path d="m28.73 33.73-2.38.53-9.33 2.07-3.02.67h14a4.025 4.025 0 0 1 1.17-2.83z" fill="#ffdf75"/><path d="m22 27 6.73 6.73.53-2.38z" fill="#f0a53b"/><path d="m26.35 34.26 2.38-.53-6.73-6.73z" fill="#d19034"/><path d="m37.65 34.26 4.35-7.26-6.73 6.73z" fill="#d19034"/><path d="m35.27 33.73 6.73-6.73-7.26 4.35z" fill="#f0a53b"/><path d="m34.74 42.65 7.26 4.35-6.73-6.73z" fill="#d19034"/><path d="m35.27 40.27 6.73 6.73-4.35-7.26z" fill="#f0a53b"/><path d="m29.26 42.65-.53-2.38-6.73 6.73z" fill="#d19034"/><path d="m26.35 39.74-4.35 7.26 6.73-6.73z" fill="#f0a53b"/></g></svg>