<svg id="Layer_1" enable-background="new 0 0 512.518 512.518" height="512" viewBox="0 0 512.518 512.518" width="512" xmlns="http://www.w3.org/2000/svg"><g><path d="m497.713 24.018c0 6.232-2.405 12.191-6.75 16.7-.1.099 6.062-6.062-266.29 266.28-2.31 2.31-5.79 2.98-8.8 1.7-15.862-6.776-35.447-2.742-47.11 12.1-2.971 3.793-8.565 4.083-11.95.72-1.817-1.816-3.95-3.574-3.95-7.27 0-2.12.84-4.16 2.34-5.66l301.72-301.73c14.873-14.752 40.79-4.172 40.79 17.16z" fill="#d9b3af"/><path d="m473.713.018c-4.363 0-8.592 1.145-12.496 3.525 10.457 6.412 14.401 19.555 9.246 30.625-2.607 5.637 13.037-10.986-269.333 271.373 5.123.114 10.081 1.166 14.742 3.158 3.01 1.28 6.49.61 8.8-1.7 284.181-284.17 268.186-267.2 270.79-272.83 7.415-15.921-4.263-34.151-21.749-34.151z" fill="#c4928a"/><path d="m189.153 365.158c-153.942 153.917-114.303 114.795-121.04 121.02-14.19 13.822-38.227 16.293-56.19-.37-16.28-16.28-14.79-43.156.34-56.91l120.31-120.32c9.36-9.35 24.58-9.35 33.94 0l22.64 22.64c9.35 9.36 9.35 24.58 0 33.94z" fill="#aa7569"/><path d="m189.153 331.218-22.64-22.64c-9.36-9.35-24.58-9.35-33.94 0l-1.03 1.03 21.61 21.61c9.35 9.36 9.35 24.58 0 33.94-130.676 130.655-122.74 123.95-130.939 128.047 15.02 7.508 33.609 4.944 45.899-7.027.13-.12.24-.23.35-.33.832-.831-11.578 11.556 120.69-120.69 9.35-9.36 9.35-24.58 0-33.94z" fill="#9a6758"/><path d="m248.213 305.518h-24c-4.418 0-8-3.582-8-8s3.582-8 8-8h24c30.879 0 56-25.121 56-56v-24c0-4.418 3.582-8 8-8h24c30.879 0 56-25.121 56-56v-24c0-4.418 3.582-8 8-8h24c30.879 0 56-25.121 56-56v-34c0-4.418 3.582-8 8-8s8 3.582 8 8v34c0 39.701-32.299 72-72 72h-16v16c0 39.701-32.299 72-72 72h-16v16c0 39.701-32.299 72-72 72z" fill="#d2d2fc"/><path d="m488.213 416.518c-4.418 0-8-3.582-8-8v-391c0-4.418 3.582-8 8-8s8 3.582 8 8v391c0 4.418-3.582 8-8 8z" fill="#d2d2fc"/><path d="m468.213 512.518c-15.439 0-28-12.561-28-28v-20c0-7.102 8.621-10.692 13.657-5.657l8 8c5.055 5.057 1.406 13.657-5.657 13.657v4c0 6.617 5.383 12 12 12s12-5.383 12-12v-44c0-4.418 3.582-8 8-8s8 3.582 8 8v44c0 15.439-12.56 28-28 28z" fill="#595965"/><circle cx="488.213" cy="424.518" fill="#e48c9b" r="24"/><path d="m480.213 401.895c21.28 7.552 21.284 37.693 0 45.246 15.589 5.532 32-6.114 32-22.623 0-16.551-16.441-28.145-32-22.623z" fill="#cc5b6f"/><path d="m256.213 345.518c0 30.88-25.12 56-56 56-46.874 0-72.688-54.264-44.02-90.61 16.155-20.557 43.443-26.534 65.96-16.93 20.69 8.82 34.06 29.05 34.06 51.54z" fill="#edebfd"/><path d="m188.21 290.815c25.571 5.579 44.003 28.227 44.003 54.703 0 26.751-18.857 49.167-43.975 54.686 35.017 7.705 67.975-19.149 67.975-54.686 0-35.594-32.828-62.341-68.003-54.703z" fill="#d2d2fc"/><path d="m277.87 379.861c-3.125-3.123-8.189-3.123-11.314 0l-10.293 10.293-39.123-39.822c-3.097-3.151-8.161-3.197-11.313-.101-3.152 3.097-3.197 8.161-.101 11.313l39.223 39.923-10.393 10.393c-3.125 3.125-3.125 8.189 0 11.314 3.125 3.124 8.189 3.123 11.313 0l32-32c3.125-3.124 3.125-8.188.001-11.313z" fill="#44454e"/><circle cx="200.213" cy="344.518" fill="#595965" r="24"/><path d="m192.213 321.895c21.28 7.552 21.284 37.693 0 45.246 15.589 5.532 32-6.114 32-22.623 0-16.551-16.441-28.145-32-22.623z" fill="#44454e"/></g></svg>