<svg id="Outline_Color" viewBox="0 0 512 512" xmlns="http://www.w3.org/2000/svg"><g id="Color"><g fill="#90a4ae"><path d="m106.17 347.05v100.01c0 10.58 8.57 19.15 19.15 19.15s19.15-8.57 19.15-19.15v-100.01z"/><path d="m144.47 347.05v82.98c0 10.58 8.57 19.15 19.15 19.15s19.15-8.57 19.15-19.15v-82.98z"/><path d="m67.87 347.05v82.98c0 10.58 8.57 19.15 19.15 19.15s19.15-8.57 19.15-19.15v-82.98z"/><path d="m31.44 315.78-7.12 84.9c-.86 10.21 6.73 19.18 16.94 20.04s19.19-6.73 20.04-16.94l7.12-84.9z"/><path d="m227.23 387.21-9.47-73.97-36.81 4.71 9.47 73.97c1.3 10.17 10.6 17.35 20.76 16.05 10.17-1.3 17.35-10.6 16.05-20.76z"/></g><path d="m204.27 260.03h-160.52l-30.99-123.42c-2.53-10.08 1.51-20.66 10.1-26.5l73.36-49.78c16.77-11.38 38.79-11.38 55.57 0l73.36 49.78c8.6 5.83 12.63 16.42 10.1 26.5l-30.99 123.42z" fill="#b0bec5"/><path d="m137.9 102.45 90.51 61.42 6.84-27.26c2.53-10.08-1.51-20.66-10.1-26.5l-73.36-49.78c-16.77-11.38-38.79-11.38-55.57 0l-73.35 49.79c-8.6 5.83-12.63 16.42-10.1 26.5l6.84 27.26 90.51-61.42c8.39-5.69 19.4-5.69 27.78 0z" fill="#cfd8dc"/><path d="m124.01 210.59-90.72 55.34-2.93 57.82c-.4 7.89 2.99 15.49 9.12 20.47l21.58 17.5c4.41 3.58 9.91 5.53 15.59 5.53h93.91c5.6 0 11.04-1.9 15.42-5.4l24.25-19.33c6.47-5.16 9.94-13.21 9.23-21.46l-4.73-55.12-90.72-55.34z" fill="#b0bec5"/><path d="m124.01 210.59-53.61 32.7v60.83c0 3.34 1.35 6.54 3.74 8.87l14.01 13.63c2.31 2.25 5.4 3.5 8.63 3.5h54.45c3.22 0 6.32-1.26 8.63-3.5l14.01-13.63c2.39-2.33 3.74-5.53 3.74-8.87v-60.83l-53.61-32.7z" fill="#90a4ae"/><path d="m96.87 197.42-71.39 46.82c-9.71 6.37-12.17 19.54-5.41 28.98 6.31 8.81 18.4 11.17 27.55 5.36l63.13-40.03c8.09-5.13 18.41-5.13 26.5 0l63.13 40.03c9.15 5.8 21.24 3.45 27.55-5.36 6.76-9.44 4.3-22.61-5.41-28.98l-71.39-46.82c-16.48-10.81-37.8-10.81-54.27 0z" fill="#cfd8dc"/><path d="m405.83 347.05v100.01c0 10.58-8.57 19.15-19.15 19.15s-19.15-8.57-19.15-19.15v-100.01z" fill="#90a4ae"/><path d="m367.53 347.05v82.98c0 10.58-8.57 19.15-19.15 19.15s-19.15-8.57-19.15-19.15v-82.98z" fill="#90a4ae"/><path d="m444.13 347.05v82.98c0 10.58-8.57 19.15-19.15 19.15s-19.15-8.57-19.15-19.15v-82.98z" fill="#90a4ae"/><path d="m480.56 315.78 7.12 84.9c.86 10.21-6.73 19.18-16.94 20.04s-19.19-6.73-20.04-16.94l-7.12-84.9z" fill="#90a4ae"/><path d="m284.77 387.21 9.47-73.97 36.81 4.71-9.47 73.97c-1.3 10.17-10.6 17.35-20.76 16.05-10.17-1.3-17.35-10.6-16.05-20.76z" fill="#90a4ae"/><path d="m307.73 260.03h160.52l30.99-123.42c2.53-10.08-1.51-20.66-10.1-26.5l-73.36-49.78c-16.77-11.38-38.79-11.38-55.57 0l-73.36 49.78c-8.6 5.83-12.63 16.42-10.1 26.5l30.99 123.42z" fill="#b0bec5"/><path d="m374.1 102.45-90.51 61.42-6.84-27.26c-2.53-10.08 1.51-20.66 10.1-26.5l73.36-49.78c16.77-11.38 38.79-11.38 55.57 0l73.36 49.78c8.6 5.83 12.63 16.42 10.1 26.5l-6.84 27.26-90.51-61.42c-8.39-5.69-19.4-5.69-27.78 0z" fill="#cfd8dc"/><path d="m387.99 210.59 90.72 55.34 2.93 57.82c.4 7.89-2.99 15.49-9.12 20.47l-21.58 17.5c-4.41 3.58-9.91 5.53-15.59 5.53h-93.91c-5.6 0-11.04-1.9-15.42-5.4l-24.25-19.33c-6.47-5.16-9.94-13.21-9.23-21.46l4.73-55.12 90.72-55.34z" fill="#b0bec5"/><path d="m387.99 210.59 53.61 32.7v60.83c0 3.34-1.35 6.54-3.74 8.87l-14.01 13.63c-2.31 2.25-5.4 3.5-8.63 3.5h-54.45c-3.22 0-6.32-1.26-8.63-3.5l-14.01-13.63c-2.39-2.33-3.74-5.53-3.74-8.87v-60.83l53.61-32.7z" fill="#90a4ae"/><path d="m415.13 197.42 71.39 46.82c9.71 6.37 12.17 19.54 5.41 28.98-6.31 8.81-18.4 11.17-27.55 5.36l-63.13-40.03c-8.09-5.13-18.41-5.13-26.5 0l-63.13 40.03c-9.15 5.8-21.24 3.45-27.55-5.36-6.76-9.44-4.3-22.61 5.41-28.98l71.39-46.82c16.48-10.81 37.8-10.81 54.27 0z" fill="#cfd8dc"/></g><g id="Outline"><path d="m26.28 285.61c-2.11 41.56-2.09 38.98-1.85 41.88l-6.09 72.69c-1.98 23.67 28.11 36.42 43.52 17.54v12.32c0 19.87 22.05 31.81 38.65 21.2 4.68 27.84 44.92 27.83 49.59 0 16.62 10.62 38.65-1.34 38.65-21.2v-26.27c14.86 20.93 47.62 7.73 44.41-17.31l-7.76-60.62c.31-3.63.33-1.59-3.01-40.53 18.96-8.73 20.63-34.79 3.41-46.08l-8.71-5.71 23.96-95.43c3.13-12.47-1.91-25.7-12.55-32.92l-73.36-49.78c-18.92-12.84-43.38-12.84-62.31 0l-73.33 49.76c-10.64 7.22-15.69 20.45-12.55 32.92l23.96 95.43-8.71 5.71c-17.58 11.53-15.29 38.11 4.09 46.39zm29.04 117.67c-1.36 16.27-26.42 14.58-25.02-2.1l4.45-53.12c1.27 1.12 23.45 19.05 23.59 19.15zm44.84 26.76c0 17.4-26.3 17.39-26.3 0v-56.92c2.02.18.98.13 26.3.13zm38.3 17.02c0 17.4-26.3 17.39-26.3 0v-73.81h26.3zm38.3-17.02c0 17.4-26.3 17.39-26.3 0v-56.79c21.67 0 22.05.22 26.3-.67zm5.46-72.88c-3.31 2.63-7.45 4.09-11.68 4.09h-93.91c-4.29 0-8.48-1.49-11.81-4.19l-21.57-17.5c-4.63-3.75-7.21-9.55-6.91-15.5l1.85-36.35c4.36-.24 8.72-1.57 12.65-4.06l13.56-8.6v29.08c0 4.93 2.03 9.73 5.56 13.17l14.01 13.64c3.45 3.36 8 5.2 12.81 5.2h54.45c4.81 0 9.36-1.85 12.81-5.21l14.01-13.63c3.53-3.44 5.56-8.24 5.56-13.17v-29.08l13.56 8.6c4.16 2.64 8.79 3.96 13.4 4.08l2.9 33.84c.54 6.26-2.08 12.34-6.99 16.26l-24.25 19.33zm-105.83-53.03v-36.69l37.57-23.83c6.1-3.87 13.98-3.87 20.07 0l37.57 23.83v36.69c0 1.71-.7 3.37-1.93 4.57l-14.01 13.63c-1.2 1.16-2.77 1.81-4.44 1.81h-54.45c-1.67 0-3.25-.64-4.44-1.8l-14.01-13.63c-1.23-1.19-1.93-2.86-1.93-4.57zm119.97 87.04-3.48-27.16s22.35-17.88 22.96-18.44l5.43 42.41c2.08 16.25-22.79 19.75-24.91 3.19zm-66.35-332.99c6.45.91 12.75 3.28 18.42 7.12l73.36 49.78c6.49 4.4 9.56 12.47 7.65 20.07l-4.75 18.94-83.41-56.6c-3.49-2.37-7.32-3.93-11.26-4.72v-34.59zm0 47c3.49 1.19-3.58-3.26 91.56 61.31l-15.08 60.06-52.06-34.14c-7.49-4.91-15.88-7.84-24.43-8.77v-78.46zm-111.43 29.98c-1.91-7.6 1.17-15.67 7.65-20.07l73.36-49.78c5.67-3.85 11.97-6.22 18.42-7.12v34.59c-3.94.79-7.77 2.35-11.26 4.72l-83.41 56.6-4.75-18.94zm7.87 31.33c95.12-64.55 88.07-60.12 91.56-61.31v78.46c-8.55.93-16.93 3.85-24.43 8.77l-52.05 34.14zm2.33 82.77 71.39-46.82c14.49-9.5 33.21-9.5 47.69 0l71.39 46.82c15.87 10.41.34 34.39-15.64 24.25l-63.13-40.03c-10-6.34-22.92-6.35-32.93 0l-63.13 40.03c-16.05 10.18-31.32-13.97-15.64-24.25z"/><path d="m492.5 105.15-73.36-49.78c-18.93-12.84-43.38-12.84-62.31 0l-73.36 49.78c-10.64 7.22-15.69 20.45-12.55 32.92l23.96 95.43-8.71 5.71c-17.46 11.45-15.25 37.49 3.41 46.09-3.34 38.99-3.32 36.89-3.01 40.52l-7.76 60.62c-3.24 25.33 29.68 38.07 44.41 17.31v26.27c0 19.87 22.05 31.81 38.65 21.2 4.68 27.84 44.92 27.82 49.59 0 16.61 10.62 38.65-1.34 38.65-21.2v-12.32c15.21 18.63 45.54 6.5 43.52-17.54l-6.09-72.69c.24-2.87.24-.83-1.85-41.87 19.18-8.19 21.84-34.75 4.09-46.39l-8.71-5.71 23.96-95.43c3.13-12.47-1.91-25.7-12.55-32.92zm-209.94 30c-1.91-7.6 1.17-15.67 7.65-20.07l73.36-49.78c5.67-3.85 11.97-6.22 18.42-7.12v34.59c-3.94.79-7.77 2.35-11.26 4.72l-83.41 56.6-4.75-18.94zm7.87 31.33c95.12-64.55 88.07-60.12 91.56-61.31v78.46c-8.55.93-16.93 3.85-24.43 8.76l-52.06 34.14-15.08-60.06zm25.2 224.68c-2.11 16.49-27.02 13.28-24.91-3.19l5.43-42.42c1.41 1.32-.31-.1 22.95 18.44l-3.48 27.16zm45.9 38.87c0 17.4-26.3 17.39-26.3 0v-57.46c4.29.89 4.72.67 26.3.67zm38.3 17.02c0 17.4-26.3 17.39-26.3 0v-73.81h26.3zm38.3-17.02c0 17.4-26.3 17.39-26.3 0v-56.79s25.38-.05 26.3-.13zm9.03-72.98c-3.33 2.7-7.52 4.19-11.81 4.19h-93.91c-4.23 0-8.38-1.45-11.68-4.09l-24.25-19.33c-4.91-3.92-7.53-10-6.99-16.26l2.9-33.84c4.61-.13 9.24-1.45 13.4-4.09l13.56-8.6v29.08c0 4.93 2.03 9.73 5.56 13.17l14.01 13.64c3.45 3.36 8 5.2 12.81 5.2h54.45c4.81 0 9.36-1.85 12.81-5.21l14.01-13.63c3.53-3.44 5.56-8.24 5.56-13.17v-29.08l13.56 8.6c3.93 2.49 8.29 3.81 12.65 4.06l1.85 36.35c.3 5.95-2.28 11.75-6.91 15.5l-21.57 17.5zm-106.78-52.93v-36.69l37.57-23.83c6.1-3.87 13.98-3.87 20.07 0l37.57 23.83v36.69c0 1.71-.7 3.37-1.93 4.57l-14.01 13.63c-1.2 1.16-2.77 1.81-4.44 1.81h-54.45c-1.67 0-3.25-.64-4.44-1.8l-14.01-13.63c-1.23-1.19-1.93-2.86-1.93-4.57zm116.29 99.15-3.02-36.07c1.1-.81 23.49-19.06 23.59-19.15l4.45 53.12c1.37 16.32-23.63 18.74-25.02 2.1zm26.55-154.02c15.57 10.21.47 34.47-15.64 24.25l-63.13-40.03c-10-6.34-22.92-6.35-32.93 0l-63.13 40.03c-16.09 10.2-31.25-14.02-15.64-24.25l71.39-46.82c14.49-9.5 33.21-9.5 47.69 0zm-12.75-22.71-52.05-34.14c-7.49-4.91-15.88-7.83-24.43-8.76v-78.46c3.49 1.19-3.58-3.26 91.56 61.31l-15.08 60.06zm22.94-91.39-4.75 18.94-83.41-56.6c-3.49-2.37-7.32-3.93-11.26-4.72v-34.59c6.45.91 12.75 3.28 18.42 7.12l73.36 49.78c6.49 4.4 9.56 12.47 7.65 20.07z"/></g></svg>