<svg height="512" viewBox="0 0 128 128" width="512" xmlns="http://www.w3.org/2000/svg"><g><path d="m76.305 51.7c5.337 5.332 15.885 14.84 12.863 32.446a38.9 38.9 0 0 0 21.657-10.674 38.906 38.906 0 0 0 10.675-21.658c-17.607 3.022-27.114-7.525-32.451-12.862z" fill="#ededf9"/><path d="m110.826 73.474a38.917 38.917 0 0 1 -21.658 10.67 35.114 35.114 0 0 0 .523-6.421 32.954 32.954 0 0 0 16.893-8.492 32.962 32.962 0 0 0 8.492-16.893 35.114 35.114 0 0 0 6.421-.523 38.891 38.891 0 0 1 -10.671 21.659z" fill="#dddde3"/><path d="m76.305 51.7c-5.337-5.342-14.845-15.89-32.452-12.868a38.909 38.909 0 0 1 10.675-21.657 38.906 38.906 0 0 1 21.658-10.675c-3.022 17.607 7.525 27.114 12.862 32.451z" fill="#ededf9"/><path d="m73.843 31.193a1.749 1.749 0 0 1 -1.55-.934 38.92 38.92 0 0 1 -2.185-4.943 1.75 1.75 0 0 1 3.292-1.186 35.368 35.368 0 0 0 1.988 4.5 1.75 1.75 0 0 1 -1.546 2.566z" fill="#dddde3"/><path d="m54.526 17.174a38.911 38.911 0 0 0 -10.67 21.658 35.107 35.107 0 0 1 6.421-.523 32.954 32.954 0 0 1 8.492-16.893 32.962 32.962 0 0 1 16.893-8.492 35.114 35.114 0 0 1 .523-6.424 38.891 38.891 0 0 0 -21.659 10.674z" fill="#dddde3"/><path d="m7.818 120.182a4.5 4.5 0 0 1 0-6.364l85.282-85.278 6.36 6.36-85.278 85.282a4.5 4.5 0 0 1 -6.364 0z" fill="#663325"/><path d="m18.167 102.333h9v6h-9z" fill="#f2a66c" transform="matrix(-.707 -.707 .707 -.707 -35.786 195.842)"/><path d="m13.925 106.575h9v6h-9z" fill="#d58559" transform="matrix(-.707 -.707 .707 -.707 -46.029 200.085)"/><path d="m78.177 42.323h9v6h-9z" fill="#d58559" transform="matrix(-.707 -.707 .707 -.707 109.09 135.833)"/><path d="m73.934 46.566h9v6h-9z" fill="#f2a66c" transform="matrix(-.707 -.707 .707 -.707 98.848 140.076)"/><path d="m82.419 38.081h9v6h-9z" fill="#f2a66c" transform="matrix(-.707 -.707 .707 -.707 119.332 131.59)"/><path d="m90.035 28.53 3.45-6.743 16.769-4.041-4.041 16.769-6.743 3.45a3 3 0 0 1 -3.488-.55l-5.4-5.4a3 3 0 0 1 -.547-3.485z" fill="#f9d42f"/></g></svg>