<svg height="504pt" viewBox="0 -58 504 504" width="504pt" xmlns="http://www.w3.org/2000/svg"><path d="m448 4c0 56 56 64 56 136 0 57.519531-46.480469 104-104 104h-8v-48h8c39.761719 0 72-32.238281 72-72 0-40-32-48-32-120zm0 0" fill="#965353"/><path d="m392 247.992188c0 2.199218-1.800781 4-4 4h-16.007812c-2.199219 0-4-1.800782-4-4v-55.992188c0-2.199219 1.800781-4 4-4h16.007812c2.199219 0 4 1.800781 4 4zm0 0" fill="#656d78"/><path d="m136.007812 247.992188c0 2.199218-1.800781 4-4 4h-16.007812c-2.199219 0-4-1.800782-4-4v-55.992188c0-2.199219 1.800781-4 4-4h16.007812c2.199219 0 4 1.800781 4 4zm0 0" fill="#656d78"/><path d="m272 91.519531c-12-4.960937-20-7.519531-20-7.519531s-8 2.558594-20 7.519531c-35.039062 14.402344-104 48.800781-104 96.480469v176c0 13.28125 10.71875 24 24 24v-120c0-8.878906 7.121094-16 16-16h64v30.863281l20 17.136719 20-17.136719v-30.863281h64c8.878906 0 16 7.121094 16 16v120c13.28125 0 24-10.71875 24-24v-176c0-47.679688-68.960938-82.078125-104-96.480469zm-20 120.480469c-4.398438 0-8-3.601562-8-8s3.601562-8 8-8 8 3.601562 8 8-3.601562 8-8 8zm0-40c-4.398438 0-8-3.601562-8-8s3.601562-8 8-8 8 3.601562 8 8-3.601562 8-8 8zm0-40c-4.398438 0-8-3.601562-8-8s3.601562-8 8-8 8 3.601562 8 8-3.601562 8-8 8zm0 0" fill="#ccd1d9"/><path d="m232 268v14.863281l20.335938 17.136719 19.664062-17.136719v-191.34375c-12-4.960937-20-7.519531-20-7.519531s-8 2.558594-20 7.519531zm20-152c4.398438 0 8 3.601562 8 8s-3.601562 8-8 8-8-3.601562-8-8 3.601562-8 8-8zm0 40c4.398438 0 8 3.601562 8 8s-3.601562 8-8 8-8-3.601562-8-8 3.601562-8 8-8zm0 40c4.398438 0 8 3.601562 8 8s-3.601562 8-8 8-8-3.601562-8-8 3.601562-8 8-8zm0 0" fill="#e6e9ed"/><path d="m352 268h-200v-52l4-4h192l4 4zm0 0" fill="#e6e9ed"/><path d="m260 124c0 4.417969-3.582031 8-8 8s-8-3.582031-8-8 3.582031-8 8-8 8 3.582031 8 8zm0 0" fill="#ccd1d9"/><path d="m260 164c0 4.417969-3.582031 8-8 8s-8-3.582031-8-8 3.582031-8 8-8 8 3.582031 8 8zm0 0" fill="#ccd1d9"/><path d="m260 204c0 4.417969-3.582031 8-8 8s-8-3.582031-8-8 3.582031-8 8-8 8 3.582031 8 8zm0 0" fill="#ccd1d9"/><path d="m232 282.863281 20 17.136719 20-17.136719v-30.863281h64c8.878906 0 16 7.121094 16 16v96h-200v-96c0-8.878906 7.121094-16 16-16h64zm0 0" fill="#aab2bd"/><path d="m56 4h8c0 72-32 80-32 120 0 39.761719 32.238281 72 72 72h8v48h-8c-57.519531 0-104-46.480469-104-104 0-72 56-80 56-136zm0 0" fill="#965353"/><g fill="#ccd1d9"><path d="m172 240c-1.023438 0-2.046875-.390625-2.832031-1.167969-1.558594-1.558593-1.558594-4.097656 0-5.65625l8-8c1.558593-1.558593 4.097656-1.558593 5.65625 0 1.558593 1.558594 1.558593 4.097657 0 5.65625l-8 8c-.777344.777344-1.800781 1.167969-2.824219 1.167969zm0 0"/><path d="m188 240c-1.023438 0-2.046875-.390625-2.832031-1.167969l-8-8c-1.558594-1.558593-1.558594-4.097656 0-5.65625 1.558593-1.558593 4.097656-1.558593 5.65625 0l8 8c1.558593 1.558594 1.558593 4.097657 0 5.65625-.777344.777344-1.800781 1.167969-2.824219 1.167969zm0 0"/><path d="m188 240c-1.023438 0-2.046875-.390625-2.832031-1.167969-1.558594-1.558593-1.558594-4.097656 0-5.65625l8-8c1.558593-1.558593 4.097656-1.558593 5.65625 0 1.558593 1.558594 1.558593 4.097657 0 5.65625l-8 8c-.777344.777344-1.800781 1.167969-2.824219 1.167969zm0 0"/><path d="m204 240c-1.023438 0-2.046875-.390625-2.832031-1.167969l-8-8c-1.558594-1.558593-1.558594-4.097656 0-5.65625 1.558593-1.558593 4.097656-1.558593 5.65625 0l8 8c1.558593 1.558594 1.558593 4.097657 0 5.65625-.777344.777344-1.800781 1.167969-2.824219 1.167969zm0 0"/><path d="m204 240c-1.023438 0-2.046875-.390625-2.832031-1.167969-1.558594-1.558593-1.558594-4.097656 0-5.65625l8-8c1.558593-1.558593 4.097656-1.558593 5.65625 0 1.558593 1.558594 1.558593 4.097657 0 5.65625l-8 8c-.777344.777344-1.800781 1.167969-2.824219 1.167969zm0 0"/><path d="m220 240c-1.023438 0-2.046875-.390625-2.832031-1.167969l-8-8c-1.558594-1.558593-1.558594-4.097656 0-5.65625 1.558593-1.558593 4.097656-1.558593 5.65625 0l8 8c1.558593 1.558594 1.558593 4.097657 0 5.65625-.777344.777344-1.800781 1.167969-2.824219 1.167969zm0 0"/><path d="m220 240c-1.023438 0-2.046875-.390625-2.832031-1.167969-1.558594-1.558593-1.558594-4.097656 0-5.65625l8-8c1.558593-1.558593 4.097656-1.558593 5.65625 0 1.558593 1.558594 1.558593 4.097657 0 5.65625l-8 8c-.777344.777344-1.800781 1.167969-2.824219 1.167969zm0 0"/><path d="m236 240c-1.023438 0-2.046875-.390625-2.832031-1.167969l-8-8c-1.558594-1.558593-1.558594-4.097656 0-5.65625 1.558593-1.558593 4.097656-1.558593 5.65625 0l8 8c1.558593 1.558594 1.558593 4.097657 0 5.65625-.777344.777344-1.800781 1.167969-2.824219 1.167969zm0 0"/><path d="m236 240c-1.023438 0-2.046875-.390625-2.832031-1.167969-1.558594-1.558593-1.558594-4.097656 0-5.65625l8-8c1.558593-1.558593 4.097656-1.558593 5.65625 0 1.558593 1.558594 1.558593 4.097657 0 5.65625l-8 8c-.777344.777344-1.800781 1.167969-2.824219 1.167969zm0 0"/><path d="m252 240c-1.023438 0-2.046875-.390625-2.832031-1.167969l-8-8c-1.558594-1.558593-1.558594-4.097656 0-5.65625 1.558593-1.558593 4.097656-1.558593 5.65625 0l8 8c1.558593 1.558594 1.558593 4.097657 0 5.65625-.777344.777344-1.800781 1.167969-2.824219 1.167969zm0 0"/><path d="m252 240c-1.023438 0-2.046875-.390625-2.832031-1.167969-1.558594-1.558593-1.558594-4.097656 0-5.65625l8-8c1.558593-1.558593 4.097656-1.558593 5.65625 0 1.558593 1.558594 1.558593 4.097657 0 5.65625l-8 8c-.777344.777344-1.800781 1.167969-2.824219 1.167969zm0 0"/><path d="m268 240c-1.023438 0-2.046875-.390625-2.832031-1.167969l-8-8c-1.558594-1.558593-1.558594-4.097656 0-5.65625 1.558593-1.558593 4.097656-1.558593 5.65625 0l8 8c1.558593 1.558594 1.558593 4.097657 0 5.65625-.777344.777344-1.800781 1.167969-2.824219 1.167969zm0 0"/><path d="m268 240c-1.023438 0-2.046875-.390625-2.832031-1.167969-1.558594-1.558593-1.558594-4.097656 0-5.65625l8-8c1.558593-1.558593 4.097656-1.558593 5.65625 0 1.558593 1.558594 1.558593 4.097657 0 5.65625l-8 8c-.777344.777344-1.800781 1.167969-2.824219 1.167969zm0 0"/><path d="m284 240c-1.023438 0-2.046875-.390625-2.832031-1.167969l-8-8c-1.558594-1.558593-1.558594-4.097656 0-5.65625 1.558593-1.558593 4.097656-1.558593 5.65625 0l8 8c1.558593 1.558594 1.558593 4.097657 0 5.65625-.777344.777344-1.800781 1.167969-2.824219 1.167969zm0 0"/><path d="m284 240c-1.023438 0-2.046875-.390625-2.832031-1.167969-1.558594-1.558593-1.558594-4.097656 0-5.65625l8-8c1.558593-1.558593 4.097656-1.558593 5.65625 0 1.558593 1.558594 1.558593 4.097657 0 5.65625l-8 8c-.777344.777344-1.800781 1.167969-2.824219 1.167969zm0 0"/><path d="m300 240c-1.023438 0-2.046875-.390625-2.832031-1.167969l-8-8c-1.558594-1.558593-1.558594-4.097656 0-5.65625 1.558593-1.558593 4.097656-1.558593 5.65625 0l8 8c1.558593 1.558594 1.558593 4.097657 0 5.65625-.777344.777344-1.800781 1.167969-2.824219 1.167969zm0 0"/><path d="m300 240c-1.023438 0-2.046875-.390625-2.832031-1.167969-1.558594-1.558593-1.558594-4.097656 0-5.65625l8-8c1.558593-1.558593 4.097656-1.558593 5.65625 0 1.558593 1.558594 1.558593 4.097657 0 5.65625l-8 8c-.777344.777344-1.800781 1.167969-2.824219 1.167969zm0 0"/><path d="m316 240c-1.023438 0-2.046875-.390625-2.832031-1.167969l-8-8c-1.558594-1.558593-1.558594-4.097656 0-5.65625 1.558593-1.558593 4.097656-1.558593 5.65625 0l8 8c1.558593 1.558594 1.558593 4.097657 0 5.65625-.777344.777344-1.800781 1.167969-2.824219 1.167969zm0 0"/><path d="m316 240c-1.023438 0-2.046875-.390625-2.832031-1.167969-1.558594-1.558593-1.558594-4.097656 0-5.65625l8-8c1.558593-1.558593 4.097656-1.558593 5.65625 0 1.558593 1.558594 1.558593 4.097657 0 5.65625l-8 8c-.777344.777344-1.800781 1.167969-2.824219 1.167969zm0 0"/><path d="m332 240c-1.023438 0-2.046875-.390625-2.832031-1.167969l-8-8c-1.558594-1.558593-1.558594-4.097656 0-5.65625 1.558593-1.558593 4.097656-1.558593 5.65625 0l8 8c1.558593 1.558594 1.558593 4.097657 0 5.65625-.777344.777344-1.800781 1.167969-2.824219 1.167969zm0 0"/></g><path d="m252 304c-.921875 0-1.847656-.3125-2.601562-.960938l-28.039063-24.03125c-1.65625-1.464843-1.824219-3.984374-.367187-5.648437 1.457031-1.65625 3.992187-1.824219 5.648437-.367187l.640625.558593 27.320312 23.410157c1.679688 1.4375 1.871094 3.960937.4375 5.640624-.792968.917969-1.910156 1.398438-3.039062 1.398438zm0 0" fill="#e6e9ed"/><path d="m252 304c-1.128906 0-2.246094-.480469-3.039062-1.398438-1.441407-1.679687-1.242188-4.203124.4375-5.640624l27.960937-23.96875c1.65625-1.457032 4.191406-1.289063 5.648437.367187 1.457032 1.664063 1.289063 4.183594-.367187 5.648437l-.640625.558594-27.398438 23.472656c-.753906.648438-1.679687.960938-2.601562.960938zm0 0" fill="#e6e9ed"/><path d="m64 4c0 2.210938-1.789062 4-4 4s-4-1.789062-4-4 1.789062-4 4-4 4 1.789062 4 4zm0 0" fill="#965353"/><path d="m448 4c0 2.210938-1.789062 4-4 4s-4-1.789062-4-4 1.789062-4 4-4 4 1.789062 4 4zm0 0" fill="#965353"/><path d="m160 216c0 2.210938-1.789062 4-4 4s-4-1.789062-4-4 1.789062-4 4-4 4 1.789062 4 4zm0 0" fill="#e6e9ed"/><path d="m352 216c0 2.210938-1.789062 4-4 4s-4-1.789062-4-4 1.789062-4 4-4 4 1.789062 4 4zm0 0" fill="#e6e9ed"/></svg>