<svg height="512" viewBox="0 0 128 128" width="512" xmlns="http://www.w3.org/2000/svg"><g><path d="m68.5 92.018h-9v-12.753a11.005 11.005 0 0 1 9.14-10.837 26.669 26.669 0 0 0 -3.961-52.921q-.334-.009-.665-.009a26.733 26.733 0 0 0 -18.266 7.223 10.512 10.512 0 0 1 -12.516 1.385 35.67 35.67 0 1 1 36.961 53.187 2.02 2.02 0 0 0 -1.7 1.972z" fill="#ededf9"/><path d="m57 89.112h14a0 0 0 0 1 0 0v26.388a6 6 0 0 1 -6 6h-2a6 6 0 0 1 -6-6v-26.388a0 0 0 0 1 0 0z" fill="#537980"/><path d="m57 97.5h14v6h-14z" fill="#ededf9" transform="matrix(-1 0 0 -1 128 201)"/><path d="m57 103.5h14v6h-14z" fill="#dddde3" transform="matrix(-1 0 0 -1 128 213)"/></g></svg>