<svg clip-rule="evenodd" fill-rule="evenodd" stroke-linejoin="round" stroke-miterlimit="2" viewBox="0 0 510 510" xmlns="http://www.w3.org/2000/svg"><g><path d="m371.5 188.337-21.04-5.638-46.663 158.221 29.003 7.772z" fill="#d5a889"/><path d="m426.869 264.806c5.395-20.133-26.653-46.24-71.523-58.263-44.869-12.023-85.677-5.438-91.072 14.696 20.588-.957 51.8 2.15 84.23 10.84 32.43 8.689 61.014 21.604 78.365 32.727z" fill="#a9b0bb"/><path d="m379.294 209.528-46.18-12.374-8.937 33.353 46.18 12.374z" fill="#636c77"/><path d="m241.034 241.043-61.946 34.678c-5.129.085-48.002-.217-48.002-.217l-12.233-35.15 2.687-29.418 41.226-19.058 27.748 10.15 23.682-8.615 17.956 12.051s8.423 34.697 8.882 35.579z" fill="#e4e8eb"/><path d="m287.851 319.615h-107.908v-62.11l28.33-18.809 23.496 7.559 18.421-9.789 29.953 4.992 15.927 18.446z" fill="#a9b0bb"/><path d="m195.373 313.568-70.961 2.139c-4.588-2.294-42.473-22.367-42.473-22.367l5.389-36.826 26.042-13.718 35.299-8.989 19.92 21.82 24.983 3.3 10.359 18.982s-8.558 34.665-8.558 35.659z" fill="#cad0d7"/><path d="m384.965 317.9-36.281 145.09c-.918 3.669-4.215 6.243-7.997 6.243h-205.361c-3.782 0-7.079-2.574-7.996-6.243l-36.282-145.09c-.616-2.462-.063-5.071 1.499-7.072 1.563-2.001 3.959-3.17 6.498-3.17h277.924c2.538 0 4.935 1.169 6.497 3.17s2.115 4.61 1.499 7.072z" fill="#937661"/><path d="m404.035 295.577c0-1.234-1.003-2.237-2.237-2.237h-327.583c-1.234 0-2.236 1.003-2.236 2.237v17.893c0 1.235 1.002 2.237 2.236 2.237h327.583c1.234 0 2.237-1.002 2.237-2.237z" fill="#efc7a4"/><circle cx="182.736" cy="469.233" fill="#636c77" r="25.767"/><circle cx="293.277" cy="469.233" fill="#636c77" r="25.767"/><path d="m316.658 132.068-39.621 50.631v-50.631h-12.47c-8.174 0-14.847-6.673-14.847-14.847v-87.374c0-8.174 6.673-14.847 14.847-14.847h158.607c8.174 0 14.847 6.673 14.847 14.847v87.374c0 8.174-6.673 14.847-14.847 14.847z" fill="#e4e8eb"/><path d="m366.123 56.228c-3.085 0-6.044 1.225-8.225 3.407-2.182 2.181-3.408 5.14-3.408 8.225v11.976c0 3.086 1.226 6.044 3.408 8.226 2.181 2.181 5.14 3.407 8.225 3.407h15.068v20.829h-74.641v-20.829h15.069c3.085 0 6.043-1.226 8.225-3.407 2.181-2.182 3.407-5.14 3.407-8.226v-11.976c0-3.085-1.226-6.044-3.407-8.225-2.182-2.182-5.14-3.407-8.225-3.407h-15.069v-20.829h74.641v20.829z" fill="#a9b0bb"/></g></svg>