<svg id="Capa_1" enable-background="new 0 0 512 512" height="512" viewBox="0 0 512 512" width="512" xmlns="http://www.w3.org/2000/svg"><g><g><g><path d="m155.744 469.083 13.639 33.459h198.611c3.79 0 6.863-3.073 6.863-6.863v-36.848z" fill="#904d24"/></g></g><g><g><path d="m383.457 421.139c-7.141 0-13.923-4.214-16.855-11.213-3.898-9.304.485-20.007 9.79-23.904l37.395-15.665c37.47-15.697 61.682-52.09 61.682-92.716v-110.057c0-15.708-12.779-28.487-28.487-28.487h-86.678c-10.088 0-18.266-8.178-18.266-18.266s8.178-18.266 18.266-18.266h86.678c35.851 0 65.018 29.167 65.018 65.018v110.057c0 55.389-33.011 105.008-84.099 126.41l-37.395 15.665c-2.306.967-4.697 1.424-7.049 1.424z" fill="#9e5528"/></g></g><g><g fill="#c86d36"><path d="m96.725 23.618c27.34 48.371 32.618 106.146 14.496 158.671l-4.53 13.129-1.864 5.609 165.759 3.195 136.942-3.195-9.105-29.243c-6.791-21.795-10.389-44.459-10.682-67.286l-.557-43.418c-.172-13.394-11.078-24.161-24.473-24.161h-23.248l-7.726 2.867-7.726-2.867h-3.829l-15.179.086-7.726 2.593-7.727-3.656c-16.878-1.781-37.741-6.093-54.502-16.167-10.98-6.599-23.448-10.317-36.258-10.317h-93.803c-7.267-.001-11.838 7.833-8.262 14.16z"/><path d="m381.675 370.976-63.103-9.864-84.894 7.213v81.385l138.427-4.008z"/></g></g><g fill="#ac5e2e"><path d="m356.835 84.481c.293 22.146 3.891 44.135 10.682 65.28l12.797 39.846c1.556 4.845 2.968 9.72 4.271 14.615l22.942-3.195-9.105-29.243c-6.791-21.795-10.389-44.459-10.682-67.286l-.557-43.418c-.172-13.394-11.078-24.161-24.473-24.161h-7.159c.447 1.745.702 3.564.726 5.439z"/><path d="m382.001 369.822c-2.447 8.161-5.215 16.252-8.365 24.24l-14.342 36.366c-2.002 5.078-7.026 8.431-12.629 8.431h-226.235c.867 1.819 1.734 3.639 2.637 5.445l8.993 17.986c2.291 4.581 6.973 7.475 12.095 7.475h233.415c5.604 0 10.627-3.456 12.629-8.69l14.342-37.484c6.71-17.538 11.595-34.379 15.129-52.615l-15.946-5.161z"/><g><path d="m297.277 85.908c4.267 0 7.726-3.459 7.726-7.726v-41.178c-4.485-.148-9.741-.462-15.453-1.065v42.243c.001 4.267 3.46 7.726 7.727 7.726z"/><path d="m331.737 61.036c4.267 0 7.726-3.459 7.726-7.726v-16.391h-15.453v16.391c.001 4.266 3.46 7.726 7.727 7.726z"/></g></g><g><g><g><path d="m96.942 370.976h322.728c10.336-52.31 7.575-106.669-8.457-158.122l-3.685-11.827h-302.701c-17.962 55.331-20.455 114.037-7.885 169.949z" fill="#9e5528"/></g></g><path d="m425.712 302.348c-.485-34.461-7.254-68.688-18.185-101.321h-23.801c15.551 55.818 14.794 114.653-2.051 169.949h37.995c4.46-22.575 6.492-45.622 6.042-68.628z" fill="#904d24"/></g><g><g><path d="m75.578 502.543h19.922c40.447 0 74.334-31.806 75.541-72.234.025-.826.037-1.655.037-2.488v-93.477c0-8.596-6.969-15.565-15.565-15.565h-139.948c-8.596 0-15.565 6.968-15.565 15.565v93.477c0 .832.012 1.661.037 2.488 1.207 40.428 35.094 72.234 75.541 72.234z" fill="#d8aa5e"/></g></g><g><g><path d="m155.513 318.779h-15.34v78.137c0 .832-.012 1.661-.037 2.488-1.207 40.429-35.094 72.234-75.541 72.234h-19.923c-12.988 0-25.291-3.294-36.061-9.086 12.723 23.869 38.177 39.991 66.966 39.991h19.923c40.446 0 74.334-31.806 75.541-72.234.025-.826.037-1.655.037-2.488v-93.477c0-8.597-6.969-15.565-15.565-15.565z" fill="#c99c56"/></g></g><g><g><path d="m148.549 502.543h19.922c40.447 0 74.334-31.806 75.541-72.234.025-.826.037-1.655.037-2.488v-93.477c0-8.596-6.969-15.565-15.565-15.565h-62.247l-6.696 4.121-8.756-4.121h-15.269l-6.901 6.181-8.551-6.181h-31.528c-8.596 0-15.565 6.969-15.565 15.565v93.477c0 .832.012 1.661.037 2.488 1.207 40.428 35.094 72.234 75.541 72.234z" fill="#fccd7f"/></g></g><g><g><path d="m228.483 318.779h-13.434v83.346c0 .79-.011 1.577-.033 2.361-1.146 40.472-35.013 72.361-75.501 72.361h-19.965c-12.292 0-23.97-2.952-34.318-8.177 13.583 20.463 37.062 33.873 63.317 33.873h19.922c40.446 0 74.334-31.806 75.541-72.234.025-.826.037-1.655.037-2.487v-93.477c-.001-8.598-6.969-15.566-15.566-15.566z" fill="#e9b665"/></g></g><g fill="#e9b665"><path d="m150.783 318.779v23.58c0 4.267 3.459 7.726 7.726 7.726s7.726-3.459 7.726-7.726v-23.58z"/><path d="m120.062 318.779v45.625c0 4.267 3.459 7.726 7.726 7.726s7.726-3.459 7.726-7.726v-45.625z"/></g></g></svg>