<svg id="Icons" height="512" viewBox="0 0 60 60" width="512" xmlns="http://www.w3.org/2000/svg"><g fill="#4b6977"><path d="m26.48 39.67 1.18 4.13a5.083 5.083 0 0 1 .08 2.42l-2.4 11.2a2 2 0 0 1 -1.957 1.58h-4.743a2 2 0 0 1 -1.961-1.608l-2.339-11.712a4.946 4.946 0 0 1 .43-3.21l1.49-3z"/><path d="m43.74 39.47 1.49 3a4.946 4.946 0 0 1 .43 3.21l-2.339 11.712a2 2 0 0 1 -1.961 1.608h-4.743a2 2 0 0 1 -1.956-1.581l-2.4-11.2a5.083 5.083 0 0 1 .08-2.42l1.18-4.13z"/><path d="m43.409 8.97 3.16 6.66a4.705 4.705 0 0 1 .35 2.84l-2.71 14.42-11.439.03-2.77-10.92-2.77 10.92-11.439-.03-2.71-14.42a4.705 4.705 0 0 1 .35-2.84l3.16-6.66 3.409-1.97h20z"/></g><path d="m28 34.6v2.8a2.19 2.19 0 0 1 -.834 1.739l-4.5 3.459a1.892 1.892 0 0 1 -2.332 0l-4.5-3.459a2.19 2.19 0 0 1 -.834-1.739v-2.8a2.19 2.19 0 0 1 .834-1.739l4.5-3.459a1.892 1.892 0 0 1 2.332 0l4.5 3.459a2.19 2.19 0 0 1 .834 1.739z" fill="#5f8696"/><path d="m32 34.6v2.8a2.19 2.19 0 0 0 .834 1.739l4.5 3.459a1.892 1.892 0 0 0 2.332 0l4.5-3.459a2.19 2.19 0 0 0 .834-1.739v-2.8a2.19 2.19 0 0 0 -.834-1.739l-4.5-3.459a1.892 1.892 0 0 0 -2.332 0l-4.5 3.459a2.19 2.19 0 0 0 -.834 1.739z" fill="#5f8696"/><path d="m22 8h16a0 0 0 0 1 0 0v12a2 2 0 0 1 -2 2h-12a2 2 0 0 1 -2-2v-12a0 0 0 0 1 0 0z" fill="#5f8696"/><path d="m19 3h22v5h-22z" fill="#395763"/><path d="m20 8-4.451 1.272a2 2 0 0 1 -2.549-1.923v-4.349a2 2 0 0 1 2-2h3a2 2 0 0 1 2 2z" fill="#5f8696"/><path d="m40 8 4.451 1.272a2 2 0 0 0 2.549-1.923v-4.349a2 2 0 0 0 -2-2h-3a2 2 0 0 0 -2 2z" fill="#5f8696"/><circle cx="30" cy="5" fill="#2f4b54" r="3"/></svg>