<svg id="Capa_1" enable-background="new 0 0 512 512" height="512" viewBox="0 0 512 512" width="512" xmlns="http://www.w3.org/2000/svg"><g><g><g><path d="m340.882 219.686-48.568-48.568-176.675 17.985c-40.825 4.156-77.219 27.535-97.972 62.937-20.15 34.374-23.239 76.144-8.363 113.108 25.217 62.66 74.888 112.332 137.548 137.548 36.964 14.876 78.734 11.787 113.108-8.363 35.402-20.753 58.781-57.147 62.937-97.972z" fill="#fddeb0"/></g></g><g><g><path d="m292.314 171.118-6.448.656 27.614 27.614-17.985 176.675c-4.156 40.825-27.535 77.219-62.937 97.972-34.374 20.151-76.144 23.239-113.108 8.363-14.418-5.802-28.137-12.914-41.04-21.166 20.228 17.266 43.284 31.339 68.441 41.463 36.964 14.876 78.734 11.787 113.108-8.363 35.401-20.753 58.781-57.147 62.937-97.972l17.985-176.675z" fill="#fccd7f"/></g></g><g><g><ellipse cx="179.828" cy="332.172" fill="#4a4545" rx="47.954" ry="57.061" transform="matrix(.707 -.707 .707 .707 -182.21 224.449)"/></g></g><g><g><path d="m264.148 286.921-39.069-39.069c-4.598-4.598-4.598-12.052 0-16.649l122.762-122.762 35.035 20.683 20.683 35.035-122.761 122.762c-4.598 4.597-12.052 4.597-16.65 0z" fill="#dc8758"/></g></g><g><g><g><path d="m102.148 395.78c-1.947 0-3.896-.743-5.383-2.229-2.972-2.972-2.972-7.792 0-10.764l271.79-271.79c2.973-2.972 7.792-2.972 10.765 0 2.972 2.972 2.972 7.792 0 10.764l-271.79 271.79c-1.486 1.486-3.434 2.229-5.382 2.229z" fill="#5b5555"/></g></g><g><g><path d="m123.831 417.463c-1.948 0-3.896-.743-5.383-2.229-2.972-2.972-2.972-7.792 0-10.764l271.79-271.79c2.974-2.973 7.793-2.972 10.765 0s2.972 7.792 0 10.764l-271.79 271.79c-1.486 1.485-3.435 2.229-5.382 2.229z" fill="#5b5555"/></g></g></g><g><g><path d="m81.539 274.457c-1.947 0-3.896-.743-5.383-2.229-2.972-2.972-2.972-7.792 0-10.764l16.482-16.482c2.973-2.972 7.792-2.972 10.765 0 2.972 2.972 2.972 7.792 0 10.764l-16.482 16.482c-1.486 1.486-3.435 2.229-5.382 2.229z" fill="#ac5e2e"/></g></g><g><g><path d="m245.154 438.072c-1.948 0-3.896-.743-5.383-2.229-2.972-2.973-2.972-7.792.001-10.764l16.482-16.481c2.972-2.973 7.792-2.972 10.764 0 2.972 2.973 2.972 7.792-.001 10.764l-16.482 16.481c-1.485 1.486-3.433 2.229-5.381 2.229z" fill="#ac5e2e"/></g></g><g><g><path d="m133.432 447.997-69.429-69.429c-3.111-3.111-3.111-8.156 0-11.267l7.988-7.988c3.111-3.111 8.156-3.111 11.267 0l69.429 69.429c3.111 3.111 3.111 8.156 0 11.267l-7.988 7.988c-3.111 3.111-8.156 3.111-11.267 0z" fill="#ac5e2e"/></g></g><g><g><path d="m479.804 33.012-.816-.816c-15.161-15.161-39.741-15.161-54.902 0l-76.245 76.245 55.719 55.719 76.245-76.245c15.16-15.161 15.16-39.742-.001-54.903z" fill="#904d24"/></g></g><g fill="#c86d36"><path d="m385.446 98.19-24.514-24.515.925-.925c2.973-2.972 2.973-7.792.001-10.764s-7.792-2.973-10.764 0l-12.616 12.615c-2.973 2.972-2.973 7.791-.001 10.764 1.487 1.487 3.434 2.229 5.383 2.23 1.947 0 3.896-.743 5.382-2.23l.926-.926 24.514 24.515c1.487 1.487 3.434 2.229 5.382 2.23 1.947 0 3.896-.743 5.383-2.23 2.971-2.972 2.971-7.792-.001-10.764z"/><path d="m368.355 55.487c1.486 1.486 3.435 2.23 5.383 2.23 1.947 0 3.896-.743 5.382-2.23l.925-.925 24.514 24.514c1.487 1.486 3.435 2.229 5.383 2.229s3.896-.743 5.382-2.229c2.972-2.972 2.972-7.792 0-10.764l-24.514-24.514.926-.926c2.972-2.972 2.972-7.792 0-10.764-2.973-2.972-7.792-2.972-10.765 0l-12.615 12.615c-2.974 2.972-2.974 7.792-.001 10.764z"/><path d="m398.233 25.609c1.487 1.486 3.435 2.229 5.383 2.229 1.947 0 3.896-.743 5.383-2.23l.925-.925 24.514 24.514c1.486 1.486 3.435 2.23 5.382 2.229 1.948 0 3.896-.743 5.383-2.229 2.972-2.972 2.972-7.792 0-10.764l-24.514-24.514.925-.925c2.972-2.972 2.972-7.792 0-10.764-2.973-2.972-7.792-2.972-10.765 0l-12.615 12.615c-2.973 2.972-2.974 7.792-.001 10.764z"/><path d="m450.015 150.144c-2.973-2.972-7.792-2.972-10.765 0l-.925.925-21.635-21.635c-2.973-2.972-7.792-2.972-10.765 0-2.972 2.972-2.972 7.792 0 10.764l21.635 21.635-.926.926c-2.972 2.972-2.972 7.792 0 10.764 1.487 1.486 3.435 2.229 5.383 2.229s3.896-.743 5.383-2.23l12.615-12.615c2.972-2.972 2.972-7.791 0-10.763z"/><path d="m456.512 143.644c1.487 1.487 3.434 2.23 5.382 2.23s3.896-.743 5.382-2.23l12.615-12.615c2.973-2.972 2.973-7.791.001-10.764-2.973-2.973-7.793-2.973-10.764 0l-.925.925-21.635-21.635c-2.973-2.972-7.792-2.972-10.765 0-2.972 2.972-2.972 7.792 0 10.764l21.636 21.636-.925.925c-2.974 2.973-2.974 7.792-.002 10.764z"/><path d="m465.681 80.441 21.636 21.636-.925.925c-2.973 2.972-2.974 7.791-.001 10.764 1.487 1.487 3.434 2.23 5.383 2.23 1.948 0 3.896-.743 5.381-2.229l12.616-12.615c2.973-2.972 2.973-7.791.001-10.764-2.973-2.973-7.793-2.973-10.764 0l-.925.925-21.635-21.635c-2.973-2.972-7.792-2.972-10.765 0-2.975 2.972-2.975 7.791-.002 10.763z"/></g></g></svg>