<svg height="512" viewBox="0 0 128 128" width="512" xmlns="http://www.w3.org/2000/svg"><g><path d="m38.091 73.689 10.529 10.7a3 3 0 0 1 -.736 4.754c-4.062 2.157-10.584 6.987-15.793 17.221-9.528 18.738-23.936 7.419-20.455-3.273 3.818-11.727 16.364-25.091 26.455-29.402z" fill="#e59756"/><path d="m98.36 57.82c-24.16 11.21-25.63 3.27-49.74 26.57l-5.14-5.22v-.01l-5.39-5.47s28.18-40.82 67.73-57.07a93.529 93.529 0 0 1 11.09-3.8s3.79 34.63-18.55 45z" fill="#e0dede"/><path d="m98.36 57.82c-24.16 11.21-25.63 3.27-49.74 26.57l-5.14-5.22v-.01s14.61-19.07 44.07-27.43c15.56-4.42 18.74-20.72 18.27-35.11a93.529 93.529 0 0 1 11.09-3.8s3.79 34.63-18.55 45z" fill="#f9f7f8"/></g></svg>