<svg id="Layer_1" enable-background="new 0 0 492 492" viewBox="0 0 492 492" xmlns="http://www.w3.org/2000/svg"><g><path d="m208.86 74.75c-2.26 1.64-2.77 4.81-1.13 7.07 3.16 4.36 43.96 52.45 45.66 52.72 154.33 24.88 169.19-89.83 170.04-97.82.29-1.58-.18-3.28-1.4-4.5-1.98-1.98-5.19-1.98-7.17 0-29.39 29.39-63.19 26.26-98.34 23.01-35.13-3.25-71.54-6.62-107.66 19.52z" fill="#fe646f"/><path d="m253.3 134.53c2.74.49 5.37-1.33 5.86-4.08.25-1.39.44-2.81.57-4.26.14-1.57.21-3 .21-4.29 0-13.28-5.39-25.31-14.09-34.02-8.7-8.7-20.72-14.07-34.02-14.08v-.02c-26.57 0-48.12 21.55-48.12 48.12 0 1.29.07 2.72.21 4.29.13 1.45.32 2.87.57 4.26.49 2.74 3.12 4.57 5.86 4.08 24.58-4.41 58.61-4.37 82.95 0z" fill="#c4ced3"/><path d="m253.3 134.53c2.74.49 5.37-1.33 5.86-4.08.25-1.39.44-2.81.57-4.26.14-1.57.21-3 .21-4.29 0-.96-.03-1.92-.09-2.87-15.31-5.97-31.57-9-48.03-9-16.64 0-32.88 3.1-48.03 8.99-.06.95-.09 1.91-.09 2.88 0 1.29.07 2.72.21 4.29.13 1.45.32 2.87.57 4.26.49 2.74 3.12 4.57 5.86 4.08 24.59-4.41 58.62-4.37 82.96 0z" fill="#b3bcc1"/><path d="m337.42 331.76c0-2.8-2.27-5.07-5.07-5.07-80.34 0-160.66 0-241.06 0-2.8 0-5.07 2.27-5.07 5.07v60.26c0 5.23 1.57 10.23 4.36 14.45 2.78 4.22 6.77 7.63 11.59 9.7l107.34 46c1.3.66 2.87.77 4.31.15v-.01l107.66-46.14c4.83-2.07 8.81-5.49 11.59-9.7 2.78-4.22 4.36-9.22 4.36-14.45v-60.26z" fill="#dce2e5"/><path d="m86.29 239.08c-.07 2.79 2.14 5.1 4.93 5.17 73.56 1.72 167.52 1.73 241.21 0 2.79-.07 5-2.38 4.93-5.17-.43-16.41-3.99-32.01-10.1-46.22-6.28-14.61-15.27-27.8-26.34-38.95-.09-.1-.18-.2-.27-.3h-.02c-11.57-11.57-25.4-20.89-40.78-27.26-14.82-6.14-31.03-9.52-48.01-9.52-34.06 0-64.96 13.57-87.59 35.61-22.71 22.08-37.07 52.68-37.96 86.64z" fill="#dce2e5"/><path d="m333.19 336.74-120.44 22.58v.01c-.77.14-1.52.11-2.23-.08l-120.07-22.51c-6.21-1.16-11.56-4.46-15.37-9.05-3.82-4.6-6.08-10.48-6.08-16.78v-50.87c0-6.3 2.26-12.18 6.08-16.78 3.81-4.59 9.16-7.88 15.37-9.05l120.44-22.58v-.01c.77-.14 1.52-.11 2.23.08l120.08 22.51c6.21 1.16 11.56 4.46 15.37 9.05 3.82 4.6 6.08 10.48 6.08 16.78v50.87c0 6.3-2.26 12.18-6.08 16.78-3.81 4.59-9.17 7.89-15.38 9.05z" fill="#c4ced3"/><g fill="#fff"><path d="m216.89 251.04c0-2.8-2.27-5.07-5.07-5.07s-5.07 2.27-5.07 5.07v68.88c0 2.8 2.27 5.07 5.07 5.07s5.07-2.27 5.07-5.07z"/><path d="m264.24 259.65c0-2.8-2.27-5.07-5.07-5.07s-5.07 2.27-5.07 5.07v51.66c0 2.8 2.27 5.07 5.07 5.07s5.07-2.27 5.07-5.07z"/><path d="m311.59 268.26c0-2.8-2.27-5.07-5.07-5.07s-5.07 2.27-5.07 5.07v34.44c0 2.8 2.27 5.07 5.07 5.07s5.07-2.27 5.07-5.07z"/><path d="m169.54 259.65c0-2.8-2.27-5.07-5.07-5.07s-5.07 2.27-5.07 5.07v51.66c0 2.8 2.27 5.07 5.07 5.07s5.07-2.27 5.07-5.07z"/><path d="m122.19 268.26c0-2.8-2.27-5.07-5.07-5.07s-5.07 2.27-5.07 5.07v34.44c0 2.8 2.27 5.07 5.07 5.07s5.07-2.27 5.07-5.07z"/></g></g></svg>