<svg clip-rule="evenodd" fill-rule="evenodd" stroke-linejoin="round" stroke-miterlimit="2" viewBox="0 0 510 510" xmlns="http://www.w3.org/2000/svg"><g><path d="m215.027 132.122c-16.932 6.007-46.222 29.543-55.434 40.732-13.574-5.084-50.707-10.822-68.374-7.558l-14.493-54.087c-9.352-34.903 18.215-73.718 42.792-87.915 28.374.008 71.664 19.838 81.016 54.741z" fill="#a9b0bb"/><path d="m194.916 351.24-57.694-215.315c-1.721-6.424 2.097-13.037 8.521-14.758 6.424-1.722 13.037 2.096 14.758 8.52l57.694 215.315c1.721 6.424-2.097 13.037-8.521 14.758-6.424 1.722-13.037-2.096-14.758-8.52z" fill="#d5a889"/><path d="m170.226 370.834-3.316-12.374c-.915-3.415 1.115-6.931 4.53-7.846l66.773-17.892c3.415-.915 6.93 1.115 7.845 4.53l3.316 12.375c.915 3.415-1.114 6.93-4.529 7.845l-66.774 17.892c-3.415.915-6.93-1.115-7.845-4.53z" fill="#fff"/><path d="m385.31 64.737-28.143-7.541-80.23 285.456 38.793 10.394z" fill="#d5a889"/><path d="m459.368 167.019c7.216-26.93-35.65-61.849-95.665-77.93-60.014-16.081-114.597-7.273-121.813 19.657 27.538-1.28 69.285 2.876 112.661 14.498 43.377 11.623 81.609 28.897 104.817 43.775z" fill="#a9b0bb"/><path d="m395.735 93.082-61.768-16.551-11.954 44.611 61.768 16.551z" fill="#636c77"/><path d="m408.49 283.768-41.575 166.258c-1.051 4.205-4.829 7.154-9.163 7.154h-235.323c-4.334 0-8.112-2.949-9.163-7.154l-41.575-166.258c-.706-2.822-.072-5.811 1.718-8.104s4.537-3.633 7.445-3.633h318.473c2.908 0 5.655 1.34 7.445 3.633s2.424 5.282 1.718 8.104z" fill="#937661"/><path d="m430.342 258.188c0-1.415-1.149-2.563-2.563-2.563h-375.377c-1.414 0-2.563 1.148-2.563 2.563v20.504c0 1.414 1.149 2.563 2.563 2.563h375.377c1.414 0 2.563-1.149 2.563-2.563z" fill="#efc7a4"/><g fill="#636c77"><circle cx="176.756" cy="457.18" r="29.526"/><circle cx="303.425" cy="457.18" r="29.526"/></g></g></svg>