<svg height="512" viewBox="0 0 128 128" width="512" xmlns="http://www.w3.org/2000/svg"><g><path d="m96.808 61.25h-6v-21.942a26.808 26.808 0 0 0 -53.616 0v21.942h-6v-21.942a32.808 32.808 0 0 1 65.616 0z" fill="#ededf9"/><circle cx="34.192" cy="56.75" fill="#dddde3" r="4.5"/><path d="m30.192 58h8a2 2 0 0 1 2 2v8.625a0 0 0 0 1 0 0h-12a0 0 0 0 1 0 0v-8.625a2 2 0 0 1 2-2z" fill="#f2a66c"/><path d="m34.192 121.5a10 10 0 0 1 -10-10v-45.5a2 2 0 0 1 2-2h16a2 2 0 0 1 2 2v45.5a10 10 0 0 1 -10 10z" fill="#663325"/><circle cx="93.808" cy="56.75" fill="#dddde3" r="4.5"/><path d="m87.808 58h12a0 0 0 0 1 0 0v8.625a2 2 0 0 1 -2 2h-8a2 2 0 0 1 -2-2v-8.625a0 0 0 0 1 0 0z" fill="#f2a66c" transform="matrix(-1 0 0 -1 187.615 126.625)"/><path d="m93.808 121.5a10 10 0 0 0 10-10v-45.5a2 2 0 0 0 -2-2h-16a2 2 0 0 0 -2 2v45.5a10 10 0 0 0 10 10z" fill="#663325"/><path d="m97.808 107.563a1.75 1.75 0 0 1 -1.75-1.75v-6a1.75 1.75 0 0 1 3.5 0v6a1.751 1.751 0 0 1 -1.75 1.75z" fill="#4f2217"/><path d="m83.808 76h20v6h-20z" fill="#f2a66c" transform="matrix(-1 0 0 -1 187.615 158)"/><path d="m83.808 82h20v6h-20z" fill="#d58559" transform="matrix(-1 0 0 -1 187.615 170)"/><path d="m83.808 88h20v6h-20z" fill="#f2a66c" transform="matrix(-1 0 0 -1 187.615 182)"/><path d="m24.192 76h20v6h-20z" fill="#f2a66c"/><path d="m24.192 82h20v6h-20z" fill="#d58559"/><path d="m24.192 88h20v6h-20z" fill="#f2a66c"/></g></svg>