<svg height="512" viewBox="0 0 128 128" width="512" xmlns="http://www.w3.org/2000/svg"><g><path d="m64 121.5a6 6 0 0 1 -6-6v-26.388h12v26.388a6 6 0 0 1 -6 6z" fill="#537980"/><path d="m58 97.5h12v6h-12z" fill="#ededf9" transform="matrix(-1 0 0 -1 128 201)"/><path d="m58 103.5h12v6h-12z" fill="#dddde3" transform="matrix(-1 0 0 -1 128 213)"/><path d="m49 32.16c10.055 22.682 8 46.732 8 56.34h14c8-45.469 4.348-67.916-10.439-82z" fill="#ededf9"/><path d="m65.174 89.534a1.7 1.7 0 0 1 -.352-.036 1.75 1.75 0 0 1 -1.364-2.064c.038-.189 3.848-19.048 3.848-36.074a1.75 1.75 0 0 1 3.5 0c0 17.388-3.88 36.582-3.919 36.774a1.75 1.75 0 0 1 -1.713 1.4z" fill="#dddde3"/><path d="m57.38 29.915a1.751 1.751 0 0 1 -1.6-2.469l2.937-6.519a1.75 1.75 0 0 1 3.192 1.438l-2.937 6.518a1.752 1.752 0 0 1 -1.592 1.032z" fill="#dddde3"/><path d="m76 91.5h-24a3 3 0 0 1 -3-3 3 3 0 0 1 3-3h24a3 3 0 0 1 3 3 3 3 0 0 1 -3 3z" fill="#3ea7fb"/></g></svg>