<svg height="512" viewBox="0 0 128 128" width="512" xmlns="http://www.w3.org/2000/svg"><g><path d="m55 82.7v-52.033c0-13.5 9-24.167 9-24.167s9 10.667 9 24.167v52.033z" fill="#ededf9"/><path d="m57 89.112h14a0 0 0 0 1 0 0v26.388a6 6 0 0 1 -6 6h-2a6 6 0 0 1 -6-6v-26.388a0 0 0 0 1 0 0z" fill="#537980"/><path d="m54 82.7h20a0 0 0 0 1 0 0v5.8a3 3 0 0 1 -3 3h-14a3 3 0 0 1 -3-3v-5.8a0 0 0 0 1 0 0z" fill="#d63922"/><path d="m57 97.5h14v6h-14z" fill="#ededf9" transform="matrix(-1 0 0 -1 128 201)"/><path d="m57 103.5h14v6h-14z" fill="#dddde3" transform="matrix(-1 0 0 -1 128 213)"/><path d="m64 82.979a1.75 1.75 0 0 1 -1.75-1.75v-30.729a1.75 1.75 0 0 1 3.5 0v30.729a1.75 1.75 0 0 1 -1.75 1.75z" fill="#dddde3"/><path d="m90.777 66.94a24.192 24.192 0 0 0 -1.567 8.5 10.06 10.06 0 0 1 -10.02 10.06h-30.38a10.06 10.06 0 0 1 -10.02-10.055 24.192 24.192 0 0 0 -1.567-8.5 2.973 2.973 0 0 1 1.451-3.685 3.01 3.01 0 0 1 4.184 1.628 30.063 30.063 0 0 1 1.932 10.6 4.029 4.029 0 0 0 4.02 4.02h30.38a4.049 4.049 0 0 0 4.02-4.093 30.146 30.146 0 0 1 .83-6.957 30.93 30.93 0 0 1 1.1-3.567 3.01 3.01 0 0 1 4.184-1.628 2.973 2.973 0 0 1 1.453 3.677z" fill="#f5502f"/></g></svg>