<svg height="512" viewBox="0 0 128 128" width="512" xmlns="http://www.w3.org/2000/svg"><g><path d="m111.4 27.85c-.94 10.66-2.39 25.02-5.08 37.56-7.55 35.22-42.24 56.05-42.32 56.09-.08-.04-34.77-20.87-42.32-56.09-2.69-12.54-4.14-26.9-5.08-37.56 10.56-4.49 10.09-16.18 10.09-16.18s13.45-5.17 37.31-5.17 37.31 5.17 37.31 5.17-.47 11.69 10.09 16.18z" fill="#385b60"/><path d="m64 114.3c-8.267-5.815-30.8-23.772-36.453-50.148a294.053 294.053 0 0 1 -4.618-32.952 22.882 22.882 0 0 0 9.39-14.99c5.218-1.404 16.144-3.71 31.681-3.71s26.456 2.3 31.681 3.712a22.886 22.886 0 0 0 9.39 14.989 294 294 0 0 1 -4.618 32.95c-5.653 26.377-28.186 44.334-36.453 50.149z" fill="#537980"/><path d="m78.168 95.281a1.749 1.749 0 0 1 -1.314-2.905c1.2-1.36 2.348-2.753 3.425-4.138a1.75 1.75 0 0 1 2.763 2.149c-1.12 1.44-2.317 2.886-3.559 4.3a1.744 1.744 0 0 1 -1.315.594z" fill="#385b60"/><path d="m89 48-20.316 1.316 1.316-20.316h-12l1.316 20.316-20.316-1.316v12l20.316-1.316-1.316 20.316h12l-1.316-20.316 20.316 1.316z" fill="#95d70b"/></g></svg>