<svg id="Layer_1" enable-background="new 0 0 512 512" height="512" viewBox="0 0 512 512" width="512" xmlns="http://www.w3.org/2000/svg"><g><path d="m256.022.003c49.495 0 99.076 6.236 140.804 18.681 3.628 1.077 6.066 4.621 5.669 8.504-.68 6.435-.624 12.757.142 18.937 2.353 18.937 11.226 35.945 24.237 48.73 13.04 12.785 30.191 21.318 49.127 23.33 6.095.652 12.417.595 18.88-.198v.028c.567-.057 1.105-.085 1.701-.028 4.365.397 7.597 4.28 7.201 8.674-8.504 93.293-38.383 167.196-81.727 228.91-43.117 61.43-99.473 110.642-161.271 154.837-2.693 2.012-6.492 2.183-9.383.113-61.855-44.223-118.267-93.463-161.442-154.95-43.203-61.572-73.054-135.248-81.643-228.229-.142-.765-.17-1.559-.085-2.381.539-4.394 4.535-7.513 8.93-6.974 6.463.793 12.785.85 18.879.198 18.908-2.013 36.087-10.545 49.099-23.33 13.04-12.785 21.913-29.794 24.238-48.73.765-6.067.85-12.303.198-18.625-.567-3.856 1.786-7.654 5.641-8.816 41.729-12.445 91.309-18.681 140.805-18.681z" fill="#ffc266"/><path d="m256.05.003c49.495 0 99.048 6.236 140.776 18.681 3.628 1.077 6.066 4.621 5.669 8.504-.68 6.435-.624 12.757.142 18.937 2.353 18.937 11.226 35.945 24.237 48.73 13.04 12.785 30.191 21.318 49.127 23.33 6.095.652 12.417.595 18.88-.198v.028c.567-.057 1.105-.085 1.701-.028 4.365.397 7.597 4.28 7.201 8.674-8.504 93.293-38.383 167.196-81.727 228.91-43.117 61.43-99.473 110.642-161.271 154.837-1.361 1.021-3.033 1.587-4.734 1.587v-511.992z" fill="#ffae33"/><path d="m137.896 322.886c-30.134-42.72-51.933-90.685-63.84-147.154-.794-3.742 1.19-7.626 4.847-9.1 20.666-8.306 39.035-21.402 53.634-37.901 14.458-16.329 25.23-35.974 30.928-57.603v.028c.765-2.92 3.147-5.273 6.293-5.84 27.355-4.932 56.866-7.399 86.263-7.399 29.227 0 58.567 2.438 85.753 7.314 3.175.369 5.953 2.636 6.804 5.896 5.698 21.63 16.47 41.275 30.927 57.603 14.571 16.47 32.884 29.567 53.521 37.873 3.6 1.361 5.755 5.188 4.961 9.071-11.906 56.498-33.705 104.491-63.839 147.211-29.992 42.494-68.177 79.743-113.08 114.923-2.835 2.324-6.973 2.466-9.95.113-44.96-35.236-83.23-72.485-113.222-115.035z" fill="#dc3910"/><path d="m256.05 57.918c29.198.028 58.538 2.466 85.724 7.314 3.175.369 5.953 2.636 6.804 5.896 5.698 21.63 16.47 41.275 30.927 57.603 14.571 16.47 32.884 29.567 53.521 37.873 3.6 1.361 5.755 5.188 4.961 9.071-11.906 56.498-33.705 104.491-63.839 147.211-29.992 42.494-68.177 79.743-113.08 114.923-1.446 1.19-3.232 1.786-5.017 1.814v-381.705z" fill="#942308"/></g></svg>