<svg height="512" viewBox="0 0 128 128" width="512" xmlns="http://www.w3.org/2000/svg"><g><g><path d="m42.85 15.974h-17.855l-.008 17.863 47.151 43.108 13.82-13.82z" fill="#f8f3f1"/><path d="m92.337 70.116-13.208 13.208 23.953 21.898 11.153-11.153z" fill="#756f6f"/><path d="m70.015 68.648h24.752a3.937 3.937 0 0 1 3.933 3.938v1.585a3.938 3.938 0 0 1 -3.938 3.938h-24.747a3.938 3.938 0 0 1 -3.938-3.938v-1.585a3.937 3.937 0 0 1 3.937-3.937z" fill="#fcc16d" transform="matrix(.707 -.707 .707 .707 -27.754 79.751)"/><circle cx="111.901" cy="102.888" fill="#fcc16d" r="9.138"/><path d="m24.995 15.974-.008 17.863 47.151 43.108 6.914-6.914z" fill="#e0d3ce"/></g><g><path d="m103.008 15.974h-17.854l-43.108 47.151 13.82 13.82 47.151-43.108z" fill="#f8f3f1"/><path d="m35.666 70.116-21.898 23.953 11.153 11.153 23.954-21.898z" fill="#756f6f"/><path d="m44.82 57.065h1.58a3.937 3.937 0 0 1 3.942 3.935v24.755a3.937 3.937 0 0 1 -3.942 3.937h-1.58a3.937 3.937 0 0 1 -3.937-3.937v-24.755a3.938 3.938 0 0 1 3.938-3.938z" fill="#fcc16d" transform="matrix(.707 -.707 .707 .707 -38.527 53.745)"/><circle cx="16.102" cy="102.888" fill="#fcc16d" r="9.138"/><path d="m103.008 15.974-54.057 54.057 6.915 6.914 47.151-43.108z" fill="#e0d3ce"/></g></g></svg>