<svg id="Capa_1" enable-background="new 0 0 512 512" viewBox="0 0 512 512" xmlns="http://www.w3.org/2000/svg"><g><g><g><g><path d="m168.857 411.182c-23.523 0-42.66-30.736-42.66-68.517 0-18.402 4.496-35.684 12.661-48.663l1.648-2.62-2.889 1.11c-3.259 1.251-6.593 1.886-9.91 1.886-12.123 0-23.072-8.177-30.846-21.261h-53.171v1c23.54 0 42.69 30.75 42.69 68.548 0 37.797-19.15 68.547-42.69 68.547v1h126.197v-1.03z" fill="#97756e"/><path d="m168.857 411.182c-15.052 0-28.298-12.597-35.894-31.56h-53.348c-7.6 18.981-20.858 31.59-35.925 31.59v1h126.197v-1.03z" fill="#82635e"/><g><ellipse cx="43.69" cy="342.665" fill="#fed2a4" rx="43.69" ry="69.547"/></g><path d="m43.69 273.117c-5.7 0-11.14 1.756-16.133 4.917 7.924 5.017 14.705 13.621 19.56 24.545 11.327 2.694 19.23 18.72 19.23 40.085s-7.903 37.39-19.23 40.084c-4.855 10.925-11.636 19.529-19.56 24.546 4.993 3.161 10.432 4.917 16.133 4.917 24.129 0 43.69-31.137 43.69-69.547 0-38.409-19.561-69.547-43.69-69.547z" fill="#ffbd86"/></g><g><path d="m437.994 156.313h-46.412c-4.154 0-8.137-1.65-11.075-4.587l-50.409-50.409c-2.039-2.039-5.344-2.039-7.383 0l-27.073 27.073c-2.039 2.039-2.039 5.344 0 7.383l11.628 11.628c3.289 3.289.96 8.912-3.692 8.912h-175.872l.251 1.01c23.424.219 42.44 30.875 42.44 68.538 0 18.588-4.799 36.533-13.177 49.435l.331 1.335c3.479-1.546 7.131-2.409 10.9-2.466l1.015-.017h298.844c.364 0 .723.03 1.085.044 7.603-12.514 12.29-29.547 12.29-48.331 0-38.41-19.561-69.548-43.691-69.548z" fill="#82635e"/><g><g><path d="m168.45 274.165 1.015-.017h298.845c.364 0 .723.03 1.085.044 7.603-12.514 12.29-29.547 12.29-48.331 0-38.41-19.561-69.548-43.69-69.548h-14.583c.734 5.053 1.134 10.309 1.134 15.717 0 38.41-19.561 69.547-43.69 69.547h-210.594c-1.984 13.668-6.501 25.789-12.716 35.056 3.481-1.547 7.134-2.411 10.904-2.468z" fill="#6d524e"/></g></g><path d="m251.138 235.397c0-4.143-3.358-7.5-7.5-7.5h-72.275c-.094 5.162-.537 10.18-1.301 15h73.576c4.142 0 7.5-3.358 7.5-7.5z" fill="#97756e"/><g><path d="m139.756 292.708c4.974-7.48 11.054-13.081 17.795-16.076 8.517-12.691 13.846-30.735 13.846-50.77 0-38.41-19.561-69.547-43.69-69.547s-43.69 31.137-43.69 69.547 19.561 69.547 43.69 69.547c4.181-.001 8.22-.956 12.049-2.701z" fill="#ffbd86"/></g><path d="m127.706 156.314c-5.648 0-11.041 1.725-15.996 4.831 8.002 5.016 14.847 13.683 19.732 24.708 11.161 2.91 18.921 18.838 18.921 40.009s-7.76 37.098-18.921 40.008c-4.885 11.024-11.73 19.691-19.732 24.708 4.955 3.107 10.348 4.832 15.996 4.832 4.181 0 8.22-.955 12.049-2.7 4.974-7.48 11.054-13.081 17.795-16.076 8.517-12.691 13.846-30.735 13.846-50.771 0-38.412-19.56-69.549-43.69-69.549z" fill="#f6a96c"/></g><g><path d="m451.963 382.124c-3.584 0-6.5-2.916-6.5-6.5s2.916-6.5 6.5-6.5h56.755c2.11-8.158 3.282-17.089 3.282-26.459 0-38.41-19.561-69.547-43.69-69.547h-299.875v1.017c.141-.002.281-.017.422-.017 23.54 0 42.69 30.75 42.69 68.548 0 37.797-19.15 68.547-42.69 68.547-.142 0-.281-.015-.422-.017v1.017h299.875c14.922 0 28.09-11.916 35.972-30.088h-52.319z" fill="#97756e"/><path d="m451.963 369.124h56.755c2.11-8.158 3.282-17.089 3.282-26.459 0-38.41-19.561-69.547-43.69-69.547h-17.088c4.235 10.713 6.693 23.385 6.693 36.977 0 38.41-19.561 69.547-43.69 69.547h-208.371c-7.732 19.561-21.406 32.57-36.997 32.57-.142 0-.281-.015-.422-.017v.017h299.875c14.922 0 28.09-11.916 35.972-30.088h-52.319c-3.584 0-6.5-2.916-6.5-6.5s2.916-6.5 6.5-6.5z" fill="#82635e"/><g><ellipse cx="168.857" cy="342.665" fill="#fed2a4" rx="43.69" ry="69.547"/></g><path d="m168.857 273.117c-5.798 0-11.328 1.814-16.39 5.079 7.786 5.021 14.452 13.515 19.25 24.267 11.629 2.287 19.798 18.482 19.798 40.202s-8.169 37.915-19.798 40.202c-4.799 10.752-11.464 19.245-19.25 24.266 5.063 3.265 10.592 5.079 16.39 5.079 24.129 0 43.69-31.137 43.69-69.547s-19.561-69.548-43.69-69.548z" fill="#ffbd86"/></g></g></g><g><g><path d="m43.69 383.155c-8.639 0-15.834-7.238-19.743-19.858-1.225-3.957.989-8.158 4.946-9.383 3.954-1.229 8.157.989 9.383 4.945 2.111 6.818 4.735 9.011 5.418 9.281 2.352-.762 7.653-10.103 7.653-25.476 0-15.372-5.301-24.714-7.652-25.477-.719.284-3.481 2.626-5.61 9.933-1.159 3.976-5.321 6.262-9.299 5.102-3.977-1.158-6.261-5.322-5.102-9.299 3.843-13.187 11.135-20.75 20.006-20.75 13.129 0 22.658 17.029 22.658 40.491s-9.529 40.491-22.658 40.491z" fill="#f6a96c"/></g><g><path d="m127.706 266.352c-13.129 0-22.658-17.028-22.658-40.49s9.529-40.491 22.658-40.491 22.658 17.029 22.658 40.491-9.529 40.49-22.658 40.49zm.07-14.994h.01zm-.07-50.974c-2.349.75-7.658 10.094-7.658 25.478s5.309 24.727 7.658 25.477c2.349-.749 7.658-10.093 7.658-25.477 0-15.385-5.309-24.729-7.658-25.478z" fill="#ea9b58"/></g><g><path d="m422.708 242.897h-45.876c-4.142 0-7.5-3.357-7.5-7.5s3.358-7.5 7.5-7.5h45.876c4.142 0 7.5 3.357 7.5 7.5s-3.358 7.5-7.5 7.5z" fill="#97756e"/></g><g><path d="m168.857 383.155c-13.129 0-22.658-17.028-22.658-40.49s9.529-40.49 22.658-40.49 22.658 17.028 22.658 40.49-9.529 40.49-22.658 40.49zm.07-14.993h.01zm-.07-50.973c-2.349.749-7.658 10.093-7.658 25.477s5.309 24.727 7.658 25.477c2.349-.749 7.658-10.093 7.658-25.477 0-15.386-5.309-24.728-7.658-25.477z" fill="#f6a96c"/></g><g><path d="m370.521 338.703h-49c-3.399 0-6.594-1.323-8.997-3.728l-19.244-19.243h-56.408c-4.142 0-7.5-3.357-7.5-7.5s3.358-7.5 7.5-7.5h57.353c3.399 0 6.594 1.323 8.996 3.728l19.244 19.243h48.056c4.142 0 7.5 3.357 7.5 7.5s-3.358 7.5-7.5 7.5zm-76.295-22.971h.01z" fill="#ae847f"/></g><path d="m508.966 368.124h-57.003c-4.142 0-7.5 3.357-7.5 7.5s3.358 7.5 7.5 7.5h51.872c2.076-4.612 3.806-9.642 5.131-15z" fill="#ae847f"/><g><path d="m399.195 383.124h-33.895c-4.142 0-7.5-3.357-7.5-7.5s3.358-7.5 7.5-7.5h33.895c4.142 0 7.5 3.357 7.5 7.5s-3.358 7.5-7.5 7.5z" fill="#ae847f"/></g><g><path d="m457.184 338.703h-43.854c-4.142 0-7.5-3.357-7.5-7.5s3.358-7.5 7.5-7.5h43.854c4.142 0 7.5 3.357 7.5 7.5s-3.358 7.5-7.5 7.5z" fill="#ae847f"/></g><g><path d="m317.51 383.124h-73.873c-4.142 0-7.5-3.357-7.5-7.5s3.358-7.5 7.5-7.5h73.873c4.142 0 7.5 3.357 7.5 7.5s-3.358 7.5-7.5 7.5z" fill="#ae847f"/></g><g><path d="m303.697 203.749h-84.813c-4.142 0-7.5-3.357-7.5-7.5s3.358-7.5 7.5-7.5h84.813c4.142 0 7.5 3.357 7.5 7.5s-3.358 7.5-7.5 7.5z" fill="#97756e"/></g><g><path d="m365.3 203.749h-17.614c-4.142 0-7.5-3.357-7.5-7.5s3.358-7.5 7.5-7.5h17.614c4.142 0 7.5 3.357 7.5 7.5s-3.358 7.5-7.5 7.5z" fill="#97756e"/></g><g><path d="m430.036 203.749h-29.235c-4.142 0-7.5-3.357-7.5-7.5s3.358-7.5 7.5-7.5h29.235c4.142 0 7.5 3.357 7.5 7.5s-3.358 7.5-7.5 7.5z" fill="#97756e"/></g></g></g><g/><g/><g/><g/><g/><g/><g/><g/><g/><g/><g/><g/><g/><g/><g/></svg>